<mxfile host="app.diagrams.net" agent="Mozilla/5.0 (Windows NT 10.0; Win64; x64) AppleWebKit/537.36 (KHTML, like Gecko) Chrome/134.0.0.0 Safari/537.36 Edg/134.0.0.0" version="26.1.3" pages="4">
  <diagram id="VbmSNMpitOyS2P8errUJ" name="global-architecture">
    <mxGraphModel dx="1580" dy="1676" grid="0" gridSize="10" guides="0" tooltips="1" connect="0" arrows="0" fold="1" page="0" pageScale="1" pageWidth="1169" pageHeight="827" math="0" shadow="0">
      <root>
        <mxCell id="0" />
        <mxCell id="1" parent="0" />
        <mxCell id="xCOBlcEBNlZvq0qhSWPW-67" value="" style="rounded=0;whiteSpace=wrap;html=1;" parent="1" vertex="1">
          <mxGeometry x="175" y="57" width="1418" height="743" as="geometry" />
        </mxCell>
        <mxCell id="xCOBlcEBNlZvq0qhSWPW-52" value="" style="shape=cylinder3;whiteSpace=wrap;html=1;boundedLbl=1;backgroundOutline=1;size=15;" parent="1" vertex="1">
          <mxGeometry x="1448" y="303.5" width="121" height="119" as="geometry" />
        </mxCell>
        <mxCell id="O6HLDK9tNG4gK17g9pfa-21" value="" style="rounded=0;whiteSpace=wrap;html=1;sketch=0;fillColor=none;dashed=1;strokeWidth=2;" parent="1" vertex="1">
          <mxGeometry x="263" y="91" width="1133" height="543" as="geometry" />
        </mxCell>
        <mxCell id="O6HLDK9tNG4gK17g9pfa-33" value="" style="image;html=1;image=img/lib/clip_art/networking/Email_128x128.png;sketch=0;fontSize=15;fillColor=none;" parent="1" vertex="1">
          <mxGeometry x="1288" y="176" width="52" height="43" as="geometry" />
        </mxCell>
        <mxCell id="O6HLDK9tNG4gK17g9pfa-50" value="" style="endArrow=classic;html=1;rounded=0;fontSize=15;endSize=6;strokeWidth=3;strokeColor=#C73500;fillColor=#fa6800;edgeStyle=entityRelationEdgeStyle;flowAnimation=1;entryX=0;entryY=0.5;entryDx=0;entryDy=0;" parent="1" source="O6HLDK9tNG4gK17g9pfa-103" target="xCOBlcEBNlZvq0qhSWPW-1" edge="1">
          <mxGeometry width="50" height="50" relative="1" as="geometry">
            <mxPoint x="267" y="350" as="sourcePoint" />
            <mxPoint x="465.0000000000002" y="161.5" as="targetPoint" />
          </mxGeometry>
        </mxCell>
        <mxCell id="O6HLDK9tNG4gK17g9pfa-59" value="/customers" style="edgeLabel;html=1;align=center;verticalAlign=middle;resizable=0;points=[];fontSize=15;" parent="O6HLDK9tNG4gK17g9pfa-50" vertex="1" connectable="0">
          <mxGeometry x="-0.5046" y="1" relative="1" as="geometry">
            <mxPoint x="62" y="-38" as="offset" />
          </mxGeometry>
        </mxCell>
        <mxCell id="O6HLDK9tNG4gK17g9pfa-51" value="" style="endArrow=classic;html=1;rounded=0;fontSize=15;endSize=6;strokeWidth=3;strokeColor=#C73500;fillColor=#fa6800;edgeStyle=entityRelationEdgeStyle;entryX=0;entryY=0.75;entryDx=0;entryDy=0;flowAnimation=1;" parent="1" source="O6HLDK9tNG4gK17g9pfa-103" target="xCOBlcEBNlZvq0qhSWPW-20" edge="1">
          <mxGeometry width="50" height="50" relative="1" as="geometry">
            <mxPoint x="260.99999999999955" y="353" as="sourcePoint" />
            <mxPoint x="486" y="528.5" as="targetPoint" />
          </mxGeometry>
        </mxCell>
        <mxCell id="O6HLDK9tNG4gK17g9pfa-60" value="/orders" style="edgeLabel;html=1;align=center;verticalAlign=middle;resizable=0;points=[];fontSize=15;" parent="O6HLDK9tNG4gK17g9pfa-51" vertex="1" connectable="0">
          <mxGeometry x="0.2804" y="-3" relative="1" as="geometry">
            <mxPoint x="-88" y="-53" as="offset" />
          </mxGeometry>
        </mxCell>
        <mxCell id="8Op4M2FmP5w4KHeaY0xA-4" style="edgeStyle=orthogonalEdgeStyle;rounded=0;orthogonalLoop=1;jettySize=auto;html=1;strokeWidth=3;fillColor=#fa6800;strokeColor=#C73500;flowAnimation=1;entryX=0;entryY=0.5;entryDx=0;entryDy=0;" parent="1" source="O6HLDK9tNG4gK17g9pfa-103" target="xCOBlcEBNlZvq0qhSWPW-12" edge="1">
          <mxGeometry relative="1" as="geometry">
            <mxPoint x="403" y="351" as="targetPoint" />
          </mxGeometry>
        </mxCell>
        <mxCell id="8Op4M2FmP5w4KHeaY0xA-5" value="/products" style="edgeLabel;html=1;align=center;verticalAlign=middle;resizable=0;points=[];fontSize=15;" parent="8Op4M2FmP5w4KHeaY0xA-4" vertex="1" connectable="0">
          <mxGeometry x="0.2865" y="1" relative="1" as="geometry">
            <mxPoint x="-50" y="-1" as="offset" />
          </mxGeometry>
        </mxCell>
        <mxCell id="Sr1AToIsDmf1QCaqVxD8-1" value="" style="shape=image;verticalLabelPosition=bottom;labelBackgroundColor=default;verticalAlign=top;aspect=fixed;imageAspect=0;image=https://www.opc-router.de/wp-content/uploads/2021/03/mongodb_thumbnail.png;" parent="1" vertex="1">
          <mxGeometry x="1286.12" y="443.5" width="55.76" height="75" as="geometry" />
        </mxCell>
        <mxCell id="8Op4M2FmP5w4KHeaY0xA-1" value="" style="shape=image;verticalLabelPosition=bottom;labelBackgroundColor=default;verticalAlign=top;aspect=fixed;imageAspect=0;image=https://avatars.githubusercontent.com/u/11860887?s=280&amp;v=4;" parent="1" vertex="1">
          <mxGeometry x="1477" y="345.5" width="63" height="63" as="geometry" />
        </mxCell>
        <mxCell id="xCOBlcEBNlZvq0qhSWPW-14" value="" style="shape=image;verticalLabelPosition=bottom;labelBackgroundColor=default;verticalAlign=top;aspect=fixed;imageAspect=0;image=https://static-00.iconduck.com/assets.00/kafka-icon-2048x935-cvu4503l.png;imageBorder=none;perimeterSpacing=0;" parent="1" vertex="1">
          <mxGeometry x="1054" y="274" width="77.75" height="35.5" as="geometry" />
        </mxCell>
        <mxCell id="xCOBlcEBNlZvq0qhSWPW-15" value="Message Broker" style="shape=cylinder3;whiteSpace=wrap;html=1;boundedLbl=1;backgroundOutline=1;size=15;rotation=90;horizontal=0;verticalAlign=top;" parent="1" vertex="1">
          <mxGeometry x="1081" y="274.5" width="59" height="139" as="geometry" />
        </mxCell>
        <mxCell id="xCOBlcEBNlZvq0qhSWPW-25" style="edgeStyle=entityRelationEdgeStyle;rounded=0;orthogonalLoop=1;jettySize=auto;html=1;entryX=0.686;entryY=0.998;entryDx=0;entryDy=0;entryPerimeter=0;fillColor=#60a917;strokeColor=#2D7600;strokeWidth=3;flowAnimation=1;" parent="1" source="xCOBlcEBNlZvq0qhSWPW-19" target="xCOBlcEBNlZvq0qhSWPW-15" edge="1">
          <mxGeometry relative="1" as="geometry" />
        </mxCell>
        <mxCell id="xCOBlcEBNlZvq0qhSWPW-27" style="rounded=0;orthogonalLoop=1;jettySize=auto;html=1;exitX=0.331;exitY=-0.003;exitDx=0;exitDy=0;exitPerimeter=0;strokeWidth=3;fillColor=#1ba1e2;strokeColor=#006EAF;flowAnimation=1;" parent="1" source="xCOBlcEBNlZvq0qhSWPW-19" edge="1">
          <mxGeometry relative="1" as="geometry">
            <mxPoint x="577" y="376" as="targetPoint" />
          </mxGeometry>
        </mxCell>
        <mxCell id="xCOBlcEBNlZvq0qhSWPW-28" style="edgeStyle=entityRelationEdgeStyle;rounded=0;orthogonalLoop=1;jettySize=auto;html=1;entryX=0;entryY=0.5;entryDx=0;entryDy=0;exitX=1;exitY=0.25;exitDx=0;exitDy=0;fillColor=#1ba1e2;strokeColor=#006EAF;strokeWidth=3;flowAnimation=1;" parent="1" source="xCOBlcEBNlZvq0qhSWPW-19" target="xCOBlcEBNlZvq0qhSWPW-9" edge="1">
          <mxGeometry relative="1" as="geometry" />
        </mxCell>
        <mxCell id="xCOBlcEBNlZvq0qhSWPW-30" style="rounded=0;orthogonalLoop=1;jettySize=auto;html=1;entryX=0.5;entryY=1;entryDx=0;entryDy=0;entryPerimeter=0;fillColor=#60a917;strokeColor=#2D7600;strokeWidth=3;flowAnimation=1;" parent="1" source="xCOBlcEBNlZvq0qhSWPW-9" target="xCOBlcEBNlZvq0qhSWPW-15" edge="1">
          <mxGeometry relative="1" as="geometry" />
        </mxCell>
        <mxCell id="xCOBlcEBNlZvq0qhSWPW-31" style="rounded=0;orthogonalLoop=1;jettySize=auto;html=1;exitX=0.75;exitY=0;exitDx=0;exitDy=0;entryX=0.75;entryY=1;entryDx=0;entryDy=0;strokeWidth=3;fillColor=#1ba1e2;strokeColor=#006EAF;flowAnimation=1;" parent="1" source="xCOBlcEBNlZvq0qhSWPW-19" target="xCOBlcEBNlZvq0qhSWPW-1" edge="1">
          <mxGeometry relative="1" as="geometry" />
        </mxCell>
        <mxCell id="xCOBlcEBNlZvq0qhSWPW-35" style="edgeStyle=orthogonalEdgeStyle;rounded=0;orthogonalLoop=1;jettySize=auto;html=1;entryX=0.5;entryY=0;entryDx=0;entryDy=0;entryPerimeter=0;fillColor=#60a917;strokeColor=#2D7600;strokeWidth=3;flowAnimation=1;" parent="1" source="xCOBlcEBNlZvq0qhSWPW-33" target="xCOBlcEBNlZvq0qhSWPW-15" edge="1">
          <mxGeometry relative="1" as="geometry" />
        </mxCell>
        <mxCell id="O6HLDK9tNG4gK17g9pfa-22" value="" style="shape=image;verticalLabelPosition=bottom;labelBackgroundColor=default;verticalAlign=top;aspect=fixed;imageAspect=0;image=https://cdn-icons-png.flaticon.com/512/25/25231.png;" parent="1" vertex="1">
          <mxGeometry x="1086.76" y="765.25" width="29" height="29" as="geometry" />
        </mxCell>
        <mxCell id="O6HLDK9tNG4gK17g9pfa-23" value="" style="sketch=0;aspect=fixed;pointerEvents=1;shadow=0;dashed=0;html=1;strokeColor=none;labelPosition=center;verticalLabelPosition=bottom;verticalAlign=top;align=center;fillColor=#00188D;shape=mxgraph.azure.code_file" parent="1" vertex="1">
          <mxGeometry x="1129.98" y="763" width="31.26" height="33.25" as="geometry" />
        </mxCell>
        <mxCell id="xCOBlcEBNlZvq0qhSWPW-46" value="" style="group" parent="1" vertex="1" connectable="0">
          <mxGeometry x="785.94" y="213" width="50.120000000000005" height="57.64852490606316" as="geometry" />
        </mxCell>
        <mxCell id="xCOBlcEBNlZvq0qhSWPW-47" value="" style="shape=image;verticalLabelPosition=bottom;labelBackgroundColor=default;verticalAlign=top;aspect=fixed;imageAspect=0;image=https://upload.wikimedia.org/wikipedia/commons/thumb/b/ba/Database-postgres.svg/1448px-Database-postgres.svg.png;container=0;" parent="xCOBlcEBNlZvq0qhSWPW-46" vertex="1">
          <mxGeometry x="13.99735211811253" width="36.12264788188748" height="51.04120428447361" as="geometry" />
        </mxCell>
        <mxCell id="xCOBlcEBNlZvq0qhSWPW-48" value="" style="sketch=0;aspect=fixed;html=1;points=[];align=center;image;fontSize=12;image=img/lib/mscae/Docker.svg;fillColor=none;container=0;" parent="xCOBlcEBNlZvq0qhSWPW-46" vertex="1">
          <mxGeometry y="36.67969348659003" width="25.571745633503813" height="20.968831419473126" as="geometry" />
        </mxCell>
        <mxCell id="xCOBlcEBNlZvq0qhSWPW-49" value="" style="group" parent="1" vertex="1" connectable="0">
          <mxGeometry x="517.94" y="226" width="50.120000000000005" height="57.64852490606316" as="geometry" />
        </mxCell>
        <mxCell id="xCOBlcEBNlZvq0qhSWPW-50" value="" style="shape=image;verticalLabelPosition=bottom;labelBackgroundColor=default;verticalAlign=top;aspect=fixed;imageAspect=0;image=https://upload.wikimedia.org/wikipedia/commons/thumb/b/ba/Database-postgres.svg/1448px-Database-postgres.svg.png;container=0;" parent="xCOBlcEBNlZvq0qhSWPW-49" vertex="1">
          <mxGeometry x="15.99735211811253" width="36.12264788188748" height="51.04120428447361" as="geometry" />
        </mxCell>
        <mxCell id="xCOBlcEBNlZvq0qhSWPW-51" value="" style="sketch=0;aspect=fixed;html=1;points=[];align=center;image;fontSize=12;image=img/lib/mscae/Docker.svg;fillColor=none;container=0;" parent="xCOBlcEBNlZvq0qhSWPW-49" vertex="1">
          <mxGeometry y="36.67969348659003" width="25.571745633503813" height="20.968831419473126" as="geometry" />
        </mxCell>
        <mxCell id="xCOBlcEBNlZvq0qhSWPW-53" style="edgeStyle=orthogonalEdgeStyle;rounded=0;orthogonalLoop=1;jettySize=auto;html=1;shape=link;flowAnimation=1;" parent="1" source="xCOBlcEBNlZvq0qhSWPW-1" edge="1">
          <mxGeometry relative="1" as="geometry">
            <mxPoint x="735.9973521181128" y="159.24" as="targetPoint" />
          </mxGeometry>
        </mxCell>
        <mxCell id="xCOBlcEBNlZvq0qhSWPW-54" style="edgeStyle=orthogonalEdgeStyle;rounded=0;orthogonalLoop=1;jettySize=auto;html=1;shape=link;flowAnimation=1;" parent="1" source="xCOBlcEBNlZvq0qhSWPW-9" target="xCOBlcEBNlZvq0qhSWPW-47" edge="1">
          <mxGeometry relative="1" as="geometry" />
        </mxCell>
        <mxCell id="xCOBlcEBNlZvq0qhSWPW-55" value="" style="group" parent="1" vertex="1" connectable="0">
          <mxGeometry x="476" y="559" width="50.120000000000005" height="57.64852490606316" as="geometry" />
        </mxCell>
        <mxCell id="xCOBlcEBNlZvq0qhSWPW-56" value="" style="shape=image;verticalLabelPosition=bottom;labelBackgroundColor=default;verticalAlign=top;aspect=fixed;imageAspect=0;image=https://upload.wikimedia.org/wikipedia/commons/thumb/b/ba/Database-postgres.svg/1448px-Database-postgres.svg.png;container=0;" parent="xCOBlcEBNlZvq0qhSWPW-55" vertex="1">
          <mxGeometry x="13.99735211811253" width="36.12264788188748" height="51.04120428447361" as="geometry" />
        </mxCell>
        <mxCell id="xCOBlcEBNlZvq0qhSWPW-57" value="" style="sketch=0;aspect=fixed;html=1;points=[];align=center;image;fontSize=12;image=img/lib/mscae/Docker.svg;fillColor=none;container=0;" parent="xCOBlcEBNlZvq0qhSWPW-55" vertex="1">
          <mxGeometry y="36.67969348659003" width="25.571745633503813" height="20.968831419473126" as="geometry" />
        </mxCell>
        <mxCell id="xCOBlcEBNlZvq0qhSWPW-58" style="edgeStyle=orthogonalEdgeStyle;rounded=0;orthogonalLoop=1;jettySize=auto;html=1;entryX=1;entryY=0.5;entryDx=0;entryDy=0;exitX=0.5;exitY=1;exitDx=0;exitDy=0;shape=link;flowAnimation=1;" parent="1" source="xCOBlcEBNlZvq0qhSWPW-19" target="xCOBlcEBNlZvq0qhSWPW-56" edge="1">
          <mxGeometry relative="1" as="geometry" />
        </mxCell>
        <mxCell id="xCOBlcEBNlZvq0qhSWPW-59" style="edgeStyle=orthogonalEdgeStyle;rounded=0;orthogonalLoop=1;jettySize=auto;html=1;entryX=0.25;entryY=1;entryDx=0;entryDy=0;shape=link;flowAnimation=1;" parent="1" source="xCOBlcEBNlZvq0qhSWPW-12" target="xCOBlcEBNlZvq0qhSWPW-50" edge="1">
          <mxGeometry relative="1" as="geometry" />
        </mxCell>
        <mxCell id="xCOBlcEBNlZvq0qhSWPW-60" style="edgeStyle=orthogonalEdgeStyle;rounded=0;orthogonalLoop=1;jettySize=auto;html=1;entryX=0.5;entryY=1;entryDx=0;entryDy=0;shape=link;flowAnimation=1;" parent="1" source="xCOBlcEBNlZvq0qhSWPW-33" target="O6HLDK9tNG4gK17g9pfa-33" edge="1">
          <mxGeometry relative="1" as="geometry" />
        </mxCell>
        <mxCell id="xCOBlcEBNlZvq0qhSWPW-61" style="edgeStyle=orthogonalEdgeStyle;rounded=0;orthogonalLoop=1;jettySize=auto;html=1;entryX=0;entryY=0.5;entryDx=0;entryDy=0;entryPerimeter=0;strokeWidth=3;fillColor=#a20025;strokeColor=#6F0000;flowAnimation=1;" parent="1" source="O6HLDK9tNG4gK17g9pfa-21" target="xCOBlcEBNlZvq0qhSWPW-52" edge="1">
          <mxGeometry relative="1" as="geometry" />
        </mxCell>
        <mxCell id="xCOBlcEBNlZvq0qhSWPW-62" value="Distributed Tracing" style="text;html=1;align=center;verticalAlign=middle;resizable=0;points=[];autosize=1;strokeColor=none;fillColor=none;fontStyle=1;fontSize=15;" parent="1" vertex="1">
          <mxGeometry x="1431" y="443" width="155" height="30" as="geometry" />
        </mxCell>
        <mxCell id="O6HLDK9tNG4gK17g9pfa-103" value="&lt;b&gt;API GW&lt;/b&gt;" style="sketch=0;outlineConnect=0;dashed=0;verticalLabelPosition=bottom;verticalAlign=top;align=center;html=1;fontSize=12;fontStyle=0;aspect=fixed;pointerEvents=1;shape=mxgraph.aws4.gateway_load_balancer;labelBackgroundColor=none;labelBorderColor=none;fillColor=#1ba1e2;strokeColor=default;" parent="1" vertex="1">
          <mxGeometry x="90" y="314.5" width="73" height="73" as="geometry" />
        </mxCell>
        <mxCell id="xCOBlcEBNlZvq0qhSWPW-64" style="edgeStyle=orthogonalEdgeStyle;rounded=0;orthogonalLoop=1;jettySize=auto;html=1;entryX=0.5;entryY=0;entryDx=0;entryDy=0;shape=link;flowAnimation=1;" parent="1" source="xCOBlcEBNlZvq0qhSWPW-33" target="Sr1AToIsDmf1QCaqVxD8-1" edge="1">
          <mxGeometry relative="1" as="geometry" />
        </mxCell>
        <mxCell id="xCOBlcEBNlZvq0qhSWPW-65" value="Async&lt;br&gt;Send Order confirmation" style="text;html=1;align=center;verticalAlign=middle;resizable=0;points=[];autosize=1;strokeColor=none;fillColor=none;" parent="1" vertex="1">
          <mxGeometry x="785.94" y="443.5" width="149" height="41" as="geometry" />
        </mxCell>
        <mxCell id="xCOBlcEBNlZvq0qhSWPW-66" value="Async&lt;br&gt;Send Payment confirmation" style="text;html=1;align=center;verticalAlign=middle;resizable=0;points=[];autosize=1;strokeColor=none;fillColor=none;" parent="1" vertex="1">
          <mxGeometry x="876" y="300" width="165" height="41" as="geometry" />
        </mxCell>
        <mxCell id="xCOBlcEBNlZvq0qhSWPW-68" value="Réseau public" style="text;html=1;align=center;verticalAlign=middle;resizable=0;points=[];autosize=1;strokeColor=none;fillColor=none;fontStyle=1" parent="1" vertex="1">
          <mxGeometry x="65" y="120" width="94" height="26" as="geometry" />
        </mxCell>
        <mxCell id="xCOBlcEBNlZvq0qhSWPW-69" value="Réseau privée" style="text;html=1;align=center;verticalAlign=middle;resizable=0;points=[];autosize=1;strokeColor=none;fillColor=none;fontStyle=1" parent="1" vertex="1">
          <mxGeometry x="181" y="57" width="95" height="26" as="geometry" />
        </mxCell>
        <mxCell id="xCOBlcEBNlZvq0qhSWPW-70" style="edgeStyle=orthogonalEdgeStyle;rounded=0;orthogonalLoop=1;jettySize=auto;html=1;entryX=0.75;entryY=1;entryDx=0;entryDy=0;flowAnimation=1;startArrow=none;startFill=0;endArrow=block;endFill=1;" parent="1" source="xCOBlcEBNlZvq0qhSWPW-37" target="O6HLDK9tNG4gK17g9pfa-21" edge="1">
          <mxGeometry relative="1" as="geometry" />
        </mxCell>
        <mxCell id="xCOBlcEBNlZvq0qhSWPW-71" style="edgeStyle=orthogonalEdgeStyle;rounded=0;orthogonalLoop=1;jettySize=auto;html=1;entryX=0.25;entryY=1;entryDx=0;entryDy=0;flowAnimation=1;startArrow=block;startFill=1;endArrow=none;endFill=0;" parent="1" source="xCOBlcEBNlZvq0qhSWPW-40" target="O6HLDK9tNG4gK17g9pfa-21" edge="1">
          <mxGeometry relative="1" as="geometry" />
        </mxCell>
        <mxCell id="rKu08YaNow4kpiejSnou-1" value="" style="shape=message;html=1;html=1;outlineConnect=0;labelPosition=center;verticalLabelPosition=bottom;align=center;verticalAlign=top;container=0;" parent="1" vertex="1">
          <mxGeometry x="1063" y="344" width="23" height="13.5" as="geometry" />
        </mxCell>
        <mxCell id="rKu08YaNow4kpiejSnou-2" value="" style="shape=message;html=1;html=1;outlineConnect=0;labelPosition=center;verticalLabelPosition=bottom;align=center;verticalAlign=top;container=0;" parent="1" vertex="1">
          <mxGeometry x="1089" y="344" width="23" height="13.5" as="geometry" />
        </mxCell>
        <mxCell id="rKu08YaNow4kpiejSnou-3" value="" style="shape=message;html=1;html=1;outlineConnect=0;labelPosition=center;verticalLabelPosition=bottom;align=center;verticalAlign=top;container=0;" parent="1" vertex="1">
          <mxGeometry x="1116" y="344" width="23" height="13.5" as="geometry" />
        </mxCell>
        <mxCell id="rKu08YaNow4kpiejSnou-4" style="edgeStyle=orthogonalEdgeStyle;rounded=0;orthogonalLoop=1;jettySize=auto;html=1;flowAnimation=1;" parent="1" source="xCOBlcEBNlZvq0qhSWPW-37" target="xCOBlcEBNlZvq0qhSWPW-40" edge="1">
          <mxGeometry relative="1" as="geometry" />
        </mxCell>
        <mxCell id="rKu08YaNow4kpiejSnou-6" style="edgeStyle=orthogonalEdgeStyle;rounded=0;orthogonalLoop=1;jettySize=auto;html=1;flowAnimation=1;" parent="1" target="O6HLDK9tNG4gK17g9pfa-103" edge="1">
          <mxGeometry relative="1" as="geometry">
            <mxPoint x="41.179999999999836" y="351.0000000000002" as="sourcePoint" />
          </mxGeometry>
        </mxCell>
        <mxCell id="vR1Pq6dqCtEIYChafSH1-1" value="" style="shape=image;verticalLabelPosition=bottom;labelBackgroundColor=default;verticalAlign=top;aspect=fixed;imageAspect=0;image=https://www.opc-router.de/wp-content/uploads/2021/03/mongodb_thumbnail.png;" parent="1" vertex="1">
          <mxGeometry x="730.1799999999998" y="128" width="55.76" height="75" as="geometry" />
        </mxCell>
        <mxCell id="vbnjpDnbafTEZDlO4RGQ-1" value="E-Ticket [Micro Services | Spring boot 3 | Spring Cloud]" style="text;html=1;strokeColor=none;fillColor=none;align=center;verticalAlign=middle;whiteSpace=wrap;rounded=0;fontSize=50;fontStyle=1" parent="1" vertex="1">
          <mxGeometry x="166.5" y="-41" width="1435" height="98" as="geometry" />
        </mxCell>
        <mxCell id="xCOBlcEBNlZvq0qhSWPW-1" value="Customer" style="rounded=1;whiteSpace=wrap;html=1;" parent="1" vertex="1">
          <mxGeometry x="539" y="140" width="120" height="39" as="geometry" />
        </mxCell>
        <mxCell id="xCOBlcEBNlZvq0qhSWPW-2" value="" style="shape=image;verticalLabelPosition=bottom;labelBackgroundColor=default;verticalAlign=top;aspect=fixed;imageAspect=0;image=https://images.ctfassets.net/gt6dp23g0g38/5DqlQtFKecFlkqQ8YGDT2p/aa945b648f44dd872e9a1b89f7d203ef/springboot.png;" parent="1" vertex="1">
          <mxGeometry x="543" y="142.6" width="19.538999999999998" height="17.55" as="geometry" />
        </mxCell>
        <mxCell id="xCOBlcEBNlZvq0qhSWPW-12" value="Product" style="rounded=1;whiteSpace=wrap;html=1;" parent="1" vertex="1">
          <mxGeometry x="483" y="330.5" width="120" height="41" as="geometry" />
        </mxCell>
        <mxCell id="xCOBlcEBNlZvq0qhSWPW-13" value="" style="shape=image;verticalLabelPosition=bottom;labelBackgroundColor=default;verticalAlign=top;aspect=fixed;imageAspect=0;image=https://images.ctfassets.net/gt6dp23g0g38/5DqlQtFKecFlkqQ8YGDT2p/aa945b648f44dd872e9a1b89f7d203ef/springboot.png;" parent="1" vertex="1">
          <mxGeometry x="487" y="333.23333333333335" width="20.541" height="18.45" as="geometry" />
        </mxCell>
        <mxCell id="xCOBlcEBNlZvq0qhSWPW-9" value="Payment" style="rounded=1;whiteSpace=wrap;html=1;" parent="1" vertex="1">
          <mxGeometry x="758" y="324" width="120" height="40" as="geometry" />
        </mxCell>
        <mxCell id="xCOBlcEBNlZvq0qhSWPW-10" value="" style="shape=image;verticalLabelPosition=bottom;labelBackgroundColor=default;verticalAlign=top;aspect=fixed;imageAspect=0;image=https://images.ctfassets.net/gt6dp23g0g38/5DqlQtFKecFlkqQ8YGDT2p/aa945b648f44dd872e9a1b89f7d203ef/springboot.png;" parent="1" vertex="1">
          <mxGeometry x="762" y="326.6666666666667" width="20.04" height="18.000000000000004" as="geometry" />
        </mxCell>
        <mxCell id="xCOBlcEBNlZvq0qhSWPW-19" value="Order" style="rounded=1;whiteSpace=wrap;html=1;" parent="1" vertex="1">
          <mxGeometry x="537" y="508" width="120" height="41.5" as="geometry" />
        </mxCell>
        <mxCell id="xCOBlcEBNlZvq0qhSWPW-20" value="" style="shape=image;verticalLabelPosition=bottom;labelBackgroundColor=default;verticalAlign=top;aspect=fixed;imageAspect=0;image=https://images.ctfassets.net/gt6dp23g0g38/5DqlQtFKecFlkqQ8YGDT2p/aa945b648f44dd872e9a1b89f7d203ef/springboot.png;" parent="1" vertex="1">
          <mxGeometry x="541" y="510.76666666666665" width="20.7915" height="18.675" as="geometry" />
        </mxCell>
        <mxCell id="xCOBlcEBNlZvq0qhSWPW-33" value="Notification" style="rounded=1;whiteSpace=wrap;html=1;" parent="1" vertex="1">
          <mxGeometry x="1254" y="320.5" width="120" height="47" as="geometry" />
        </mxCell>
        <mxCell id="xCOBlcEBNlZvq0qhSWPW-34" value="" style="shape=image;verticalLabelPosition=bottom;labelBackgroundColor=default;verticalAlign=top;aspect=fixed;imageAspect=0;image=https://images.ctfassets.net/gt6dp23g0g38/5DqlQtFKecFlkqQ8YGDT2p/aa945b648f44dd872e9a1b89f7d203ef/springboot.png;" parent="1" vertex="1">
          <mxGeometry x="1258" y="323.6333333333333" width="23.546999999999997" height="21.15" as="geometry" />
        </mxCell>
        <mxCell id="xCOBlcEBNlZvq0qhSWPW-40" value="Eureka server" style="rounded=1;whiteSpace=wrap;html=1;" parent="1" vertex="1">
          <mxGeometry x="487" y="703.13" width="120" height="47" as="geometry" />
        </mxCell>
        <mxCell id="xCOBlcEBNlZvq0qhSWPW-41" value="" style="shape=image;verticalLabelPosition=bottom;labelBackgroundColor=default;verticalAlign=top;aspect=fixed;imageAspect=0;image=https://images.ctfassets.net/gt6dp23g0g38/5DqlQtFKecFlkqQ8YGDT2p/aa945b648f44dd872e9a1b89f7d203ef/springboot.png;" parent="1" vertex="1">
          <mxGeometry x="491" y="706.2633333333333" width="23.546999999999997" height="21.15" as="geometry" />
        </mxCell>
        <mxCell id="xCOBlcEBNlZvq0qhSWPW-37" value="Config server" style="rounded=1;whiteSpace=wrap;html=1;" parent="1" vertex="1">
          <mxGeometry x="1054" y="703.13" width="120" height="47" as="geometry" />
        </mxCell>
        <mxCell id="xCOBlcEBNlZvq0qhSWPW-38" value="" style="shape=image;verticalLabelPosition=bottom;labelBackgroundColor=default;verticalAlign=top;aspect=fixed;imageAspect=0;image=https://images.ctfassets.net/gt6dp23g0g38/5DqlQtFKecFlkqQ8YGDT2p/aa945b648f44dd872e9a1b89f7d203ef/springboot.png;" parent="1" vertex="1">
          <mxGeometry x="1058" y="706.2633333333333" width="23.546999999999997" height="21.15" as="geometry" />
        </mxCell>
        <mxCell id="4cqCb_3XGZImLFNXIxyI-1" value="" style="rounded=0;whiteSpace=wrap;html=1;" parent="1" vertex="1">
          <mxGeometry x="175" y="57" width="1418" height="743" as="geometry" />
        </mxCell>
        <mxCell id="4cqCb_3XGZImLFNXIxyI-2" value="" style="shape=cylinder3;whiteSpace=wrap;html=1;boundedLbl=1;backgroundOutline=1;size=15;" parent="1" vertex="1">
          <mxGeometry x="1448" y="303.5" width="121" height="119" as="geometry" />
        </mxCell>
        <mxCell id="4cqCb_3XGZImLFNXIxyI-3" value="" style="rounded=0;whiteSpace=wrap;html=1;sketch=0;fillColor=none;dashed=1;strokeWidth=2;" parent="1" vertex="1">
          <mxGeometry x="263" y="91" width="1133" height="543" as="geometry" />
        </mxCell>
        <mxCell id="4cqCb_3XGZImLFNXIxyI-4" value="" style="image;html=1;image=img/lib/clip_art/networking/Email_128x128.png;sketch=0;fontSize=15;fillColor=none;" parent="1" vertex="1">
          <mxGeometry x="1288" y="176" width="52" height="43" as="geometry" />
        </mxCell>
        <mxCell id="4cqCb_3XGZImLFNXIxyI-5" value="" style="endArrow=classic;html=1;rounded=0;fontSize=15;endSize=6;strokeWidth=3;strokeColor=#C73500;fillColor=#fa6800;edgeStyle=entityRelationEdgeStyle;flowAnimation=1;entryX=0;entryY=0.5;entryDx=0;entryDy=0;" parent="1" target="4cqCb_3XGZImLFNXIxyI-55" edge="1">
          <mxGeometry width="50" height="50" relative="1" as="geometry">
            <mxPoint x="168" y="350.4999999999998" as="sourcePoint" />
            <mxPoint x="465.0000000000002" y="161.5" as="targetPoint" />
          </mxGeometry>
        </mxCell>
        <mxCell id="4cqCb_3XGZImLFNXIxyI-6" value="/customers" style="edgeLabel;html=1;align=center;verticalAlign=middle;resizable=0;points=[];fontSize=15;" parent="4cqCb_3XGZImLFNXIxyI-5" vertex="1" connectable="0">
          <mxGeometry x="-0.5046" y="1" relative="1" as="geometry">
            <mxPoint x="62" y="-38" as="offset" />
          </mxGeometry>
        </mxCell>
        <mxCell id="4cqCb_3XGZImLFNXIxyI-7" value="" style="endArrow=classic;html=1;rounded=0;fontSize=15;endSize=6;strokeWidth=3;strokeColor=#C73500;fillColor=#fa6800;edgeStyle=entityRelationEdgeStyle;entryX=0;entryY=0.75;entryDx=0;entryDy=0;flowAnimation=1;" parent="1" target="4cqCb_3XGZImLFNXIxyI-62" edge="1">
          <mxGeometry width="50" height="50" relative="1" as="geometry">
            <mxPoint x="168" y="350.4999999999998" as="sourcePoint" />
            <mxPoint x="486" y="528.5" as="targetPoint" />
          </mxGeometry>
        </mxCell>
        <mxCell id="4cqCb_3XGZImLFNXIxyI-8" value="/orders" style="edgeLabel;html=1;align=center;verticalAlign=middle;resizable=0;points=[];fontSize=15;" parent="4cqCb_3XGZImLFNXIxyI-7" vertex="1" connectable="0">
          <mxGeometry x="0.2804" y="-3" relative="1" as="geometry">
            <mxPoint x="-88" y="-53" as="offset" />
          </mxGeometry>
        </mxCell>
        <mxCell id="4cqCb_3XGZImLFNXIxyI-9" style="edgeStyle=orthogonalEdgeStyle;rounded=0;orthogonalLoop=1;jettySize=auto;html=1;strokeWidth=3;fillColor=#fa6800;strokeColor=#C73500;flowAnimation=1;entryX=0;entryY=0.5;entryDx=0;entryDy=0;" parent="1" target="4cqCb_3XGZImLFNXIxyI-57" edge="1">
          <mxGeometry relative="1" as="geometry">
            <mxPoint x="403" y="351" as="targetPoint" />
            <mxPoint x="168" y="350.57142857142867" as="sourcePoint" />
          </mxGeometry>
        </mxCell>
        <mxCell id="4cqCb_3XGZImLFNXIxyI-10" value="/products" style="edgeLabel;html=1;align=center;verticalAlign=middle;resizable=0;points=[];fontSize=15;" parent="4cqCb_3XGZImLFNXIxyI-9" vertex="1" connectable="0">
          <mxGeometry x="0.2865" y="1" relative="1" as="geometry">
            <mxPoint x="-50" y="-1" as="offset" />
          </mxGeometry>
        </mxCell>
        <mxCell id="4cqCb_3XGZImLFNXIxyI-12" value="" style="shape=image;verticalLabelPosition=bottom;labelBackgroundColor=default;verticalAlign=top;aspect=fixed;imageAspect=0;image=https://avatars.githubusercontent.com/u/11860887?s=280&amp;v=4;" parent="1" vertex="1">
          <mxGeometry x="1477" y="345.5" width="63" height="63" as="geometry" />
        </mxCell>
        <mxCell id="4cqCb_3XGZImLFNXIxyI-13" value="r" style="shape=image;verticalLabelPosition=bottom;labelBackgroundColor=default;verticalAlign=top;aspect=fixed;imageAspect=0;image=https://static-00.iconduck.com/assets.00/kafka-icon-2048x935-cvu4503l.png;imageBorder=none;perimeterSpacing=0;" parent="1" vertex="1">
          <mxGeometry x="1054" y="274" width="77.75" height="35.5" as="geometry" />
        </mxCell>
        <mxCell id="4cqCb_3XGZImLFNXIxyI-14" value="Message Broker" style="shape=cylinder3;whiteSpace=wrap;html=1;boundedLbl=1;backgroundOutline=1;size=15;rotation=90;horizontal=0;verticalAlign=top;" parent="1" vertex="1">
          <mxGeometry x="1081" y="274.5" width="59" height="139" as="geometry" />
        </mxCell>
        <mxCell id="4cqCb_3XGZImLFNXIxyI-15" style="edgeStyle=entityRelationEdgeStyle;rounded=0;orthogonalLoop=1;jettySize=auto;html=1;entryX=0.686;entryY=0.998;entryDx=0;entryDy=0;entryPerimeter=0;fillColor=#60a917;strokeColor=#2D7600;strokeWidth=3;flowAnimation=1;" parent="1" source="4cqCb_3XGZImLFNXIxyI-61" target="4cqCb_3XGZImLFNXIxyI-14" edge="1">
          <mxGeometry relative="1" as="geometry" />
        </mxCell>
        <mxCell id="4cqCb_3XGZImLFNXIxyI-16" style="rounded=0;orthogonalLoop=1;jettySize=auto;html=1;exitX=0.331;exitY=-0.003;exitDx=0;exitDy=0;exitPerimeter=0;strokeWidth=3;fillColor=#1ba1e2;strokeColor=#006EAF;flowAnimation=1;" parent="1" source="4cqCb_3XGZImLFNXIxyI-61" edge="1">
          <mxGeometry relative="1" as="geometry">
            <mxPoint x="577" y="376" as="targetPoint" />
          </mxGeometry>
        </mxCell>
        <mxCell id="4cqCb_3XGZImLFNXIxyI-17" style="edgeStyle=entityRelationEdgeStyle;rounded=0;orthogonalLoop=1;jettySize=auto;html=1;entryX=0;entryY=0.5;entryDx=0;entryDy=0;exitX=1;exitY=0.25;exitDx=0;exitDy=0;fillColor=#1ba1e2;strokeColor=#006EAF;strokeWidth=3;flowAnimation=1;" parent="1" source="4cqCb_3XGZImLFNXIxyI-61" target="4cqCb_3XGZImLFNXIxyI-59" edge="1">
          <mxGeometry relative="1" as="geometry" />
        </mxCell>
        <mxCell id="4cqCb_3XGZImLFNXIxyI-18" style="rounded=0;orthogonalLoop=1;jettySize=auto;html=1;entryX=0.5;entryY=1;entryDx=0;entryDy=0;entryPerimeter=0;fillColor=#60a917;strokeColor=#2D7600;strokeWidth=3;flowAnimation=1;" parent="1" source="4cqCb_3XGZImLFNXIxyI-59" target="4cqCb_3XGZImLFNXIxyI-14" edge="1">
          <mxGeometry relative="1" as="geometry" />
        </mxCell>
        <mxCell id="4cqCb_3XGZImLFNXIxyI-19" style="rounded=0;orthogonalLoop=1;jettySize=auto;html=1;exitX=0.75;exitY=0;exitDx=0;exitDy=0;entryX=0.75;entryY=1;entryDx=0;entryDy=0;strokeWidth=3;fillColor=#1ba1e2;strokeColor=#006EAF;flowAnimation=1;" parent="1" source="4cqCb_3XGZImLFNXIxyI-61" target="4cqCb_3XGZImLFNXIxyI-55" edge="1">
          <mxGeometry relative="1" as="geometry" />
        </mxCell>
        <mxCell id="4cqCb_3XGZImLFNXIxyI-20" style="edgeStyle=orthogonalEdgeStyle;rounded=0;orthogonalLoop=1;jettySize=auto;html=1;entryX=0.5;entryY=0;entryDx=0;entryDy=0;entryPerimeter=0;fillColor=#60a917;strokeColor=#2D7600;strokeWidth=3;flowAnimation=1;" parent="1" source="4cqCb_3XGZImLFNXIxyI-63" target="4cqCb_3XGZImLFNXIxyI-14" edge="1">
          <mxGeometry relative="1" as="geometry" />
        </mxCell>
        <mxCell id="4cqCb_3XGZImLFNXIxyI-21" value="" style="shape=image;verticalLabelPosition=bottom;labelBackgroundColor=default;verticalAlign=top;aspect=fixed;imageAspect=0;image=https://cdn-icons-png.flaticon.com/512/25/25231.png;" parent="1" vertex="1">
          <mxGeometry x="1086.76" y="765.25" width="29" height="29" as="geometry" />
        </mxCell>
        <mxCell id="4cqCb_3XGZImLFNXIxyI-22" value="" style="sketch=0;aspect=fixed;pointerEvents=1;shadow=0;dashed=0;html=1;strokeColor=none;labelPosition=center;verticalLabelPosition=bottom;verticalAlign=top;align=center;fillColor=#00188D;shape=mxgraph.azure.code_file" parent="1" vertex="1">
          <mxGeometry x="1129.98" y="763" width="31.26" height="33.25" as="geometry" />
        </mxCell>
        <mxCell id="4cqCb_3XGZImLFNXIxyI-29" style="edgeStyle=orthogonalEdgeStyle;rounded=0;orthogonalLoop=1;jettySize=auto;html=1;shape=link;flowAnimation=1;" parent="1" source="4cqCb_3XGZImLFNXIxyI-55" edge="1">
          <mxGeometry relative="1" as="geometry">
            <mxPoint x="735.9973521181128" y="159.24" as="targetPoint" />
          </mxGeometry>
        </mxCell>
        <mxCell id="4cqCb_3XGZImLFNXIxyI-30" style="edgeStyle=orthogonalEdgeStyle;rounded=0;orthogonalLoop=1;jettySize=auto;html=1;shape=link;flowAnimation=1;" parent="1" source="4cqCb_3XGZImLFNXIxyI-59" edge="1">
          <mxGeometry relative="1" as="geometry">
            <mxPoint x="870.0999999999999" y="217.04120428447368" as="targetPoint" />
          </mxGeometry>
        </mxCell>
        <mxCell id="4cqCb_3XGZImLFNXIxyI-34" style="edgeStyle=orthogonalEdgeStyle;rounded=0;orthogonalLoop=1;jettySize=auto;html=1;exitX=0.5;exitY=1;exitDx=0;exitDy=0;shape=link;flowAnimation=1;" parent="1" source="4cqCb_3XGZImLFNXIxyI-61" edge="1">
          <mxGeometry relative="1" as="geometry">
            <mxPoint x="488.99" y="573" as="targetPoint" />
          </mxGeometry>
        </mxCell>
        <mxCell id="4cqCb_3XGZImLFNXIxyI-35" style="edgeStyle=orthogonalEdgeStyle;rounded=0;orthogonalLoop=1;jettySize=auto;html=1;entryX=0.25;entryY=1;entryDx=0;entryDy=0;shape=link;flowAnimation=1;" parent="1" source="4cqCb_3XGZImLFNXIxyI-57" edge="1">
          <mxGeometry relative="1" as="geometry">
            <mxPoint x="542.9680140885844" y="277.0412042844737" as="targetPoint" />
          </mxGeometry>
        </mxCell>
        <mxCell id="4cqCb_3XGZImLFNXIxyI-36" style="edgeStyle=orthogonalEdgeStyle;rounded=0;orthogonalLoop=1;jettySize=auto;html=1;entryX=0.5;entryY=1;entryDx=0;entryDy=0;shape=link;flowAnimation=1;" parent="1" source="4cqCb_3XGZImLFNXIxyI-63" target="4cqCb_3XGZImLFNXIxyI-4" edge="1">
          <mxGeometry relative="1" as="geometry" />
        </mxCell>
        <mxCell id="4cqCb_3XGZImLFNXIxyI-37" style="edgeStyle=orthogonalEdgeStyle;rounded=0;orthogonalLoop=1;jettySize=auto;html=1;entryX=0;entryY=0.5;entryDx=0;entryDy=0;entryPerimeter=0;strokeWidth=3;fillColor=#a20025;strokeColor=#6F0000;flowAnimation=1;" parent="1" source="4cqCb_3XGZImLFNXIxyI-3" target="4cqCb_3XGZImLFNXIxyI-2" edge="1">
          <mxGeometry relative="1" as="geometry" />
        </mxCell>
        <mxCell id="4cqCb_3XGZImLFNXIxyI-38" value="Distributed Tracing" style="text;html=1;align=center;verticalAlign=middle;resizable=0;points=[];autosize=1;strokeColor=none;fillColor=none;fontStyle=1;fontSize=15;" parent="1" vertex="1">
          <mxGeometry x="1431" y="443" width="155" height="30" as="geometry" />
        </mxCell>
        <mxCell id="4cqCb_3XGZImLFNXIxyI-40" style="edgeStyle=orthogonalEdgeStyle;rounded=0;orthogonalLoop=1;jettySize=auto;html=1;entryX=0.5;entryY=0;entryDx=0;entryDy=0;shape=link;flowAnimation=1;" parent="1" source="4cqCb_3XGZImLFNXIxyI-63" edge="1">
          <mxGeometry relative="1" as="geometry">
            <mxPoint x="1314" y="443.5" as="targetPoint" />
          </mxGeometry>
        </mxCell>
        <mxCell id="4cqCb_3XGZImLFNXIxyI-41" value="Async&lt;br&gt;Send Order confirmation" style="text;html=1;align=center;verticalAlign=middle;resizable=0;points=[];autosize=1;strokeColor=none;fillColor=none;" parent="1" vertex="1">
          <mxGeometry x="785.94" y="443.5" width="149" height="41" as="geometry" />
        </mxCell>
        <mxCell id="4cqCb_3XGZImLFNXIxyI-42" value="Async&lt;br&gt;Send Payment confirmation" style="text;html=1;align=center;verticalAlign=middle;resizable=0;points=[];autosize=1;strokeColor=none;fillColor=none;" parent="1" vertex="1">
          <mxGeometry x="876" y="300" width="165" height="41" as="geometry" />
        </mxCell>
        <mxCell id="4cqCb_3XGZImLFNXIxyI-43" value="Réseau public" style="text;html=1;align=center;verticalAlign=middle;resizable=0;points=[];autosize=1;strokeColor=none;fillColor=none;fontStyle=1" parent="1" vertex="1">
          <mxGeometry x="65" y="120" width="94" height="26" as="geometry" />
        </mxCell>
        <mxCell id="4cqCb_3XGZImLFNXIxyI-44" value="Réseau privée" style="text;html=1;align=center;verticalAlign=middle;resizable=0;points=[];autosize=1;strokeColor=none;fillColor=none;fontStyle=1" parent="1" vertex="1">
          <mxGeometry x="181" y="57" width="95" height="26" as="geometry" />
        </mxCell>
        <mxCell id="4cqCb_3XGZImLFNXIxyI-45" style="edgeStyle=orthogonalEdgeStyle;rounded=0;orthogonalLoop=1;jettySize=auto;html=1;entryX=0.75;entryY=1;entryDx=0;entryDy=0;flowAnimation=1;startArrow=none;startFill=0;endArrow=block;endFill=1;" parent="1" source="4cqCb_3XGZImLFNXIxyI-67" target="4cqCb_3XGZImLFNXIxyI-3" edge="1">
          <mxGeometry relative="1" as="geometry" />
        </mxCell>
        <mxCell id="4cqCb_3XGZImLFNXIxyI-46" style="edgeStyle=orthogonalEdgeStyle;rounded=0;orthogonalLoop=1;jettySize=auto;html=1;entryX=0.25;entryY=1;entryDx=0;entryDy=0;flowAnimation=1;startArrow=block;startFill=1;endArrow=none;endFill=0;" parent="1" source="4cqCb_3XGZImLFNXIxyI-65" target="4cqCb_3XGZImLFNXIxyI-3" edge="1">
          <mxGeometry relative="1" as="geometry" />
        </mxCell>
        <mxCell id="4cqCb_3XGZImLFNXIxyI-47" value="" style="shape=message;html=1;html=1;outlineConnect=0;labelPosition=center;verticalLabelPosition=bottom;align=center;verticalAlign=top;container=0;" parent="1" vertex="1">
          <mxGeometry x="1063" y="344" width="23" height="13.5" as="geometry" />
        </mxCell>
        <mxCell id="4cqCb_3XGZImLFNXIxyI-48" value="" style="shape=message;html=1;html=1;outlineConnect=0;labelPosition=center;verticalLabelPosition=bottom;align=center;verticalAlign=top;container=0;" parent="1" vertex="1">
          <mxGeometry x="1089" y="344" width="23" height="13.5" as="geometry" />
        </mxCell>
        <mxCell id="4cqCb_3XGZImLFNXIxyI-49" value="" style="shape=message;html=1;html=1;outlineConnect=0;labelPosition=center;verticalLabelPosition=bottom;align=center;verticalAlign=top;container=0;" parent="1" vertex="1">
          <mxGeometry x="1116" y="344" width="23" height="13.5" as="geometry" />
        </mxCell>
        <mxCell id="4cqCb_3XGZImLFNXIxyI-50" style="edgeStyle=orthogonalEdgeStyle;rounded=0;orthogonalLoop=1;jettySize=auto;html=1;flowAnimation=1;" parent="1" source="4cqCb_3XGZImLFNXIxyI-67" target="4cqCb_3XGZImLFNXIxyI-65" edge="1">
          <mxGeometry relative="1" as="geometry" />
        </mxCell>
        <mxCell id="4cqCb_3XGZImLFNXIxyI-54" value="E-Ticket [Micro Services | Spring boot 3 | Spring Cloud]" style="text;html=1;strokeColor=none;fillColor=none;align=center;verticalAlign=middle;whiteSpace=wrap;rounded=0;fontSize=50;fontStyle=1" parent="1" vertex="1">
          <mxGeometry x="166.5" y="-41" width="1435" height="98" as="geometry" />
        </mxCell>
        <mxCell id="4cqCb_3XGZImLFNXIxyI-55" value="Customer" style="rounded=1;whiteSpace=wrap;html=1;" parent="1" vertex="1">
          <mxGeometry x="539" y="140" width="120" height="39" as="geometry" />
        </mxCell>
        <mxCell id="4cqCb_3XGZImLFNXIxyI-56" value="" style="shape=image;verticalLabelPosition=bottom;labelBackgroundColor=default;verticalAlign=top;aspect=fixed;imageAspect=0;image=https://images.ctfassets.net/gt6dp23g0g38/5DqlQtFKecFlkqQ8YGDT2p/aa945b648f44dd872e9a1b89f7d203ef/springboot.png;" parent="1" vertex="1">
          <mxGeometry x="543" y="142.6" width="19.538999999999998" height="17.55" as="geometry" />
        </mxCell>
        <mxCell id="4cqCb_3XGZImLFNXIxyI-57" value="Product" style="rounded=1;whiteSpace=wrap;html=1;" parent="1" vertex="1">
          <mxGeometry x="483" y="330.5" width="120" height="41" as="geometry" />
        </mxCell>
        <mxCell id="4cqCb_3XGZImLFNXIxyI-58" value="" style="shape=image;verticalLabelPosition=bottom;labelBackgroundColor=default;verticalAlign=top;aspect=fixed;imageAspect=0;image=https://images.ctfassets.net/gt6dp23g0g38/5DqlQtFKecFlkqQ8YGDT2p/aa945b648f44dd872e9a1b89f7d203ef/springboot.png;" parent="1" vertex="1">
          <mxGeometry x="487" y="333.23333333333335" width="20.541" height="18.45" as="geometry" />
        </mxCell>
        <mxCell id="4cqCb_3XGZImLFNXIxyI-59" value="Payment" style="rounded=1;whiteSpace=wrap;html=1;" parent="1" vertex="1">
          <mxGeometry x="758" y="324" width="120" height="40" as="geometry" />
        </mxCell>
        <mxCell id="4cqCb_3XGZImLFNXIxyI-60" value="" style="shape=image;verticalLabelPosition=bottom;labelBackgroundColor=default;verticalAlign=top;aspect=fixed;imageAspect=0;image=https://images.ctfassets.net/gt6dp23g0g38/5DqlQtFKecFlkqQ8YGDT2p/aa945b648f44dd872e9a1b89f7d203ef/springboot.png;" parent="1" vertex="1">
          <mxGeometry x="762" y="326.6666666666667" width="20.04" height="18.000000000000004" as="geometry" />
        </mxCell>
        <mxCell id="4cqCb_3XGZImLFNXIxyI-61" value="Order" style="rounded=1;whiteSpace=wrap;html=1;" parent="1" vertex="1">
          <mxGeometry x="537" y="508" width="120" height="41.5" as="geometry" />
        </mxCell>
        <mxCell id="4cqCb_3XGZImLFNXIxyI-62" value="" style="shape=image;verticalLabelPosition=bottom;labelBackgroundColor=default;verticalAlign=top;aspect=fixed;imageAspect=0;image=https://images.ctfassets.net/gt6dp23g0g38/5DqlQtFKecFlkqQ8YGDT2p/aa945b648f44dd872e9a1b89f7d203ef/springboot.png;" parent="1" vertex="1">
          <mxGeometry x="541" y="510.76666666666665" width="20.7915" height="18.675" as="geometry" />
        </mxCell>
        <mxCell id="4cqCb_3XGZImLFNXIxyI-63" value="Notification" style="rounded=1;whiteSpace=wrap;html=1;" parent="1" vertex="1">
          <mxGeometry x="1254" y="320.5" width="120" height="47" as="geometry" />
        </mxCell>
        <mxCell id="4cqCb_3XGZImLFNXIxyI-64" value="" style="shape=image;verticalLabelPosition=bottom;labelBackgroundColor=default;verticalAlign=top;aspect=fixed;imageAspect=0;image=https://images.ctfassets.net/gt6dp23g0g38/5DqlQtFKecFlkqQ8YGDT2p/aa945b648f44dd872e9a1b89f7d203ef/springboot.png;" parent="1" vertex="1">
          <mxGeometry x="1258" y="323.6333333333333" width="23.546999999999997" height="21.15" as="geometry" />
        </mxCell>
        <mxCell id="4cqCb_3XGZImLFNXIxyI-65" value="Eureka server" style="rounded=1;whiteSpace=wrap;html=1;" parent="1" vertex="1">
          <mxGeometry x="487" y="703.13" width="120" height="47" as="geometry" />
        </mxCell>
        <mxCell id="4cqCb_3XGZImLFNXIxyI-66" value="" style="shape=image;verticalLabelPosition=bottom;labelBackgroundColor=default;verticalAlign=top;aspect=fixed;imageAspect=0;image=https://images.ctfassets.net/gt6dp23g0g38/5DqlQtFKecFlkqQ8YGDT2p/aa945b648f44dd872e9a1b89f7d203ef/springboot.png;" parent="1" vertex="1">
          <mxGeometry x="491" y="706.2633333333333" width="23.546999999999997" height="21.15" as="geometry" />
        </mxCell>
        <mxCell id="4cqCb_3XGZImLFNXIxyI-67" value="Config server" style="rounded=1;whiteSpace=wrap;html=1;" parent="1" vertex="1">
          <mxGeometry x="1054" y="703.13" width="120" height="47" as="geometry" />
        </mxCell>
        <mxCell id="4cqCb_3XGZImLFNXIxyI-68" value="" style="shape=image;verticalLabelPosition=bottom;labelBackgroundColor=default;verticalAlign=top;aspect=fixed;imageAspect=0;image=https://images.ctfassets.net/gt6dp23g0g38/5DqlQtFKecFlkqQ8YGDT2p/aa945b648f44dd872e9a1b89f7d203ef/springboot.png;" parent="1" vertex="1">
          <mxGeometry x="1058" y="706.2633333333333" width="23.546999999999997" height="21.15" as="geometry" />
        </mxCell>
        <mxCell id="4cqCb_3XGZImLFNXIxyI-69" value="" style="shape=image;verticalLabelPosition=bottom;labelBackgroundColor=default;verticalAlign=top;aspect=fixed;imageAspect=0;image=data:image/webp,UklGRnIVAABXRUJQVlA4TGYVAAAv/0OAAO8HSQDbtg1BSHLS9v//6Vd63nuIBDo+ATm21YaOAKXvnNPSzbhft+R9DgLpISBEkqTY6oGFB/4VfRvfAfP/O9Dzf4eHj/FbuzlIuznIQdrNQXLSLormoPbiIO0WAC+wChtogUE2ISP/Cf1CoYQqKXmIMNGTMJUUbBBD6F/EVDDlBeFCqQHKTgYYYJABBhkgJ4O8wAA7RYC5KZWmIi7FoTkUhebUlCqlplApdaSAQIJeJClZoCXtdDQKoOCGbhAKBeBqXTpWkVWxqdEVT9TixUepTv714XBL6NBRuoZoza2gQjaFSiiASiHwv2sv7UW7AaooFNL3PL7sX3v5NxRSIe0VCmmv8D0PB2m39mID5eKgY13kdsOnXGZiWWnTL5z6trCttU3fBiZuM3w5eJECb1uctTyGlSd9Cj39yWO6urviBdCmYVPqkObSTJIpLSs2jok2cDlMk3AxRe2kVIrCjiNqa7Q8JZ+lnf7028DfKf9dmps8xb9pStRpnTtUyE55EG/65en/3Vf8+rZ/N3j03X98Hn3D858jbi723WlfXb20y+srVEpWFAMSFEMxsYRAHjCxxHGL05KsRnbJCiRAgmIoJllRDMWM7ChmZEcywQASIEExI7ulV/NI3b4/sQmbCBMewio06PP72D+pRmstb/cv3vqbLun69QHHQdtIklSV8Ee9z9WsDkBETEBO99tZvssHuZ0ZQEUdCVoVNq136AZQDbR2mARU6FoBuZCtcp/DkK4fcrx/NdRs600kSXJyFm2zuTsZC09qfYW/srKYaRsaVIR8vm8gov9y0EgSJCnylraW8B86q1moN+DGtu2qqQoTktHC966A8ztSF3gixb6tz70EW+ZE9B9t27ZhD8gFrYKOlLVtOyRJ256lT6DUdn/pzLKRNW27t3MGik6UbYx3bdu2jTPoWdnMyD/e743cxCai/5Ig2Y7bZr5ZOLEmewKFeB9ecJEc27ZqKxf3/fS7/ye4w2mSBwm4BEIM391SsATwlru762t949Y+a69TdehE9F8SJEmOpGQe8MISrdt7UB+hf/73H/vP/rP/7D/7z/6z/+w/+8/+s//sP/vP/rP/nJrmrgaWW4rwXSNju0oQPhahoacEoa+xsdemB3caXX6yg+p2eCzeyMGpxpcRN1jbt7De0FUD6w3PakN6Q5oEyd4aLbjSKNNhBY0dC+sNnzXOjDnB1kGg6A0l6KmB9YYHjTUnfKAyC5Z9PhiWasJ6Q2vXwnrDTzVhveF9YWG9YaQG1htu1IT1htq2hfWGIzVhvWFj38J6Q1dNWG94VBvSG9LUwnrDSk1Yb2juWFhv+KYmrDd8HFhYb+irCesN92rCekN1bmG94VRNWG9o71lYb+ioCesNLwtLBhjQP2Wc9YZrNWG9ob5jYb3hk+ZFTpA/ZZz1hp7mRjq4nzJOekNlZmG9Yak5khvMTxlnveGH5klOED9lnPWGoZqw3nCrBtYbqtsW1huO1YT1hvV9C+sNXTVhveFJLaQ3pKmF9YaVGlhvaOxYWG/4qm640oCoui4aOvfsRNRyIgNFpoynG5sQVRJIkWCFjhdB6iqRgSFTxi9BrjqRARJ6RM5A2GN5H4Z7P5/WJggREV8rx79x/CILpkLebngehsrcDVYdhFr5t4opWCz/1mwIO1Neh+HU0XcgV0PwP6STgDb5j4XTIG+jRAZyTBlPNkColv8RsvSJyv9qLuaWP7wNQ8fPeRly1fv+j/ToKySjZkA45GkY3hZuaMHcUywZ+NPa/8YJZTIfM1zzMAxpUjSFTS1WpldsahaE3R6G4drPpx1yNYbtkDZlhR0Lp3k6hvqOH0U9SGFLVFlhW3Mg7Eh7FYbDgikC9kiXqsKeRdMhb8s9CsPmgRtSjRDKJAvBpN7v/YhkqXmg5QfehKFXLEWdLxvSp0aXZK2ZEPZt9yIMj1osRUyy4mvRUgSzswAzXCcyEGLKuIVSGNRFJfrEoGZD2JX0HgznBVOETJAOnX/j+DKBG4Y8B0Nrt1iKGjEibGlwUYxqLoSpPMsPujD+IRELpvCbId0KdEgGGoYVPIYXMkwZT2MUpWKIQgSZFRbDmu8uwyRBmEHRLhwY1wCcbjGumaAIMi/BcFewsrGoOYKOIEsFMnG7ocaEKeOosDEHxMAMiGG5MILsGL+c+Pk3OJAiaIpCBFmrzxA3RpDtr9NgyniyAaQwRCOCzCa2RM9QRANDt3BlY86qR10h4AgyEhieCnbhoEQc4k+rK9ARZBQwpGnRFI5rsbYCHkFGAcNlsS4cNEWc4y57ntAnyP4DLKQvP7zkoxqQAsAJvxM+CLL4v1BtuskvqLAxRPVc1Wjt+D/i8/jByfMoPbNdqYg8/XzergI1GkIwnxGVdrt09UKQfX1lqm+I7Br2w0GQAkKD6CR3xC0VYaH7ZdxPxc/nA1SjIQQl0WqbShZghqa4n4YbpizDKDB/VBTUkplzGp0NofzRVHD9nR9BjYYgdIheGxcDstAa8ZP8nN99CFpwgGA2qxiZchqdC6H6Od6n5uf8BhQ2BqFZNFOHs9BpKahWvNMMChtDsCC67XQanY+55ZuhoFqxkuYeV78ySAszIZRe2gmoFd+DwsYgdIt2W3AWmu0E04q3lrAsOHBH8urJzMMsVD6ZCaYVP4EaDUFoE/024Cy0mXkD0oo31TSKuayHSAlmYecXK4G04lueBQeN4iOFYzDHD7qsBNGK91BhYwimxU87cBa+x/ZsxMlyGsXxOk/JzjqNzsIYPtoIoBU/gMLGIHSJrzbrLGBuabERQCsW8yhy3iILToUgyx0G0JeNBSG0ir/UO5jjBx0mAufvvOEPGwsPQcaMsjGfyR9lSpCh8CSEjU1KyoaIIGNF2dixoudkmRJkrCgb65SUDRJBhuayMRrF4Zz3yDRPggzL5zc8jYZaJGXCRJBhuWwsjtldNCZsLAMQ6aJJkOG9bExVAUmQ5QID3MvGYqBGQxhtZUmQIVmxlKfRUD5tQkWQMaJsrF1SNlgEGSHKxmazMJFJnIUv0AF72Riq0RBOihwJMhyXjdE3GgoYQQY/BSFsrB4q2cMMCTKsl40xNBrKmyFqAQ4dBg3lwJJhSJCBWPEzaHfR2EZDOAs4BFk7bkCsqOJpNJSBi5T4EWQYVhykbzQUNoIMwor3ecLGpgSx7fQIMgyXjbmm0ZD1a4jKH2Nz1lLCxjDbBESQxeYgYWP0itARZAh+XTR92FjwCDIAvy6aJ2xsPvVE8Agy3Cl4YmPhI8hgd/LExgJIkNGgbOxYETqZOWYEGQ3KxjoEu43MCDL0KqjCxsA7RYwgA+/5Nf3uooNIkGH3O+/GecLGMvCRTl4EGQfKxly94CcHRJDRGbBbNka/u+hAEmQUKBs7mjeRzDwrggzfZWOajYZCSZAx43XRoSTIGFA21iRWUiBFkAG3bMw1u4s2dw3RUXsLuFXwh42FkyDDbdkY0tNFW2ozJYIMthcOrD9d9BPYSPoLUOBfNtYqtlIPQ5CVJoCCNkWyLwUgbjSUfyPpyhEH9FZQWzaGdNGQteRBCLKyc/M4C5hVfDV+0dAT2Ei6fNw51wITTpSN0SPIFpb9gOknlFBi0BA9gqy04gMtvqZEXxfNjiCrzq34wgllAdavi/YzNBoyfQ2RzACMzk2CBNWviy6laDTE6hqiyiqnl1AWUD1oSBgaDVm/hmiWOat8twVmgQ+DhugRZKXVv9fSChHAlo3hTBTShh5Btso7GWeBDoOG6BFkpX8emoynKdHXRbMjyAr/KRcc/xpLUy3f10XTuobI4M+rGYCg/icFWJCUpUeQ5S9Mgyb6DxkGDdEjyHYYLZz+6D1ceF00PYIsz7BpgveA9ScFSB4aIvBE0oZLFo989h3M/6QAbcKg9R4W8oz/DeU7cH5ddLVqoyF2BFmBzePKYAs8eV201SeSnmkfNpZRaAuI/0kBpoVF25QX8p0sV/4RN1OP7XXRqT4n4KyjZyj9LgC+bKxLeLRJaSHrPXgLLHldtP0nki487XB24nWBBoOGmBFk0wGjcxPRMqlRnq+LZkeQFSwQp/XNY1jwumjDBJnWG4Cs4oWX/oL2srEpYdNWnYXCPMT8pMVfSDBoiB1BtsPmG+fMgKTrs9/J+R/JC5N6+dqgnsYRNJ8/O3Wa09q1a6p22ngP72Sv/srKyvIsVWFQ5wVSL98POrcj118fzJmbjEDSRnyYPbuNnmbT8SZEVZ2EcNSjzpnY9VeG7oZHNYDfnD7Utn17yWRrDQTMuBmh1Fi6+VuL2V7sTAjjZDKM+d/URRBKQUmeztykH7LceAFm6KeSzXEIRyDX9Q1LaeWGSaf3hIDvusvkFSYZhFwXBUItLMmHn2PUYZtR6J7dBolkQxOEExBOApPcuOFx3NEYgL7rLtN/aWTbAIQLmLFHU9vPsRrzyvxeqgtjPIqD0CQPbng4gJiawwyhmbhPcKqdu/mbMOeo/bZ9iS4MYbZPgVFUgpO8nrnJoOOpeY41bMLccxRy3WY8pUs3/BY3vOe4wrZ9pygs9PMoGuFJtpxfPziv8q67DBHIesjVjFEcBSi5dX39oMKn8q67VP/an6ihUawGRLX8HGsdPZYLNoxRnKj0QSiEKHl0dP3AeGqucEuf8WyJ8yjeIFX1Y5h08Fgu3DBxiuCEgBSQkndH1w8cTs2hyw8GTGcjj+I8YypdOb1+UHVS8/N7WTM9wbPgoBOmZMPp9YPDmS/GqxiGyWFjzaiwMVDJncvrB6WLdN99z94QYGOoai79XD/ATM336SxQw8YqMIpSYcTWhUHjqbnG8gP22NjtDVaVlbvrB83HxbBUCTL62Fgc0XVhxOHUXJcgY4+N4UqunV0/qDzptF+/0gJzbGzVA2vd0fUDR1NzbYKMOzYGLLl3df2gZJEh+gQZcWzsDVkNP4ZJB4/l6hNkzLGxqDDNEI3aTM31DbyxMWglP4bHx8SwVCLISE80CovTDNG3mJfmMYYh1thYXJxmiB4aDrkugmxbDU3cwGoEV9vP8aWYVM6LIBvDjNuFHhsDlzz4+Tv3HxyGPi7Y2G6hEZGRmiH6dZEIiWGCysR+vdAIdMmLn2N/VnJeBNlGnnea5qzQUM0QPT3JY6jxwMbKFqqMx8ZqhujrLC/R60aQ8cDGggtdOMCX3IZs2Mqj2IwAa/k5vhC7ynkRZMOYERU2FhixT5DtgbAAZOCAjcVACw4QVvVjeGJjIIggY3DgoBoVNhYZsk+QHeAxDDLAxsKgsDGIpSs/hozs0VwXQbZtgEaxGuLjNUP0FY9h1P5EAKTAmNyV0PWDXusTJaAFBwkAmyH6lccwbnyiCqOoFBW8E/byGPptY2NRUJdxlFVWfgw+IgO9iU4ok/cSqiAbtIyNhUBhYzCT62JdP5gLWn4AOkG04ABn60WrIHOtYYxHUQhncl9GBmbY2PUNaI1lCVWQMcPGagFNnsqogowZNoa0tCqhCrIrvLCxNGDOEOWAHUmP8ygOSuMnIENEChubsNYOroJsmKfRUCmsyUMZVZBxwsbAViuhCrKJU4QOHDQCW/KKEEE2wAgbQ9ua+4wIMj7YGNsSYUSQsbloqBDckseMjh+wwcbwtvkWIYKMDTaGt+QZI4KMCzYGuHV3GBFkVLAxwCVvAnQN0XrMiAobywa9Y4geEhn+8sDGGJdsZ0SQscDGSqXDhDFELLAxzG0iRJCNs8DGMJc8J0SQ9TPAxk4C3VpKBBkDbIx0yVtGBBkDbAx1yUNGBJl1bOw+wW4bI4LMOjZWCXbJ00AQZJt5FLcZdxtvEyLIYA8cVKHCxnCXvGBEkFnGxo4C3pq7xggy0h1JM4WNES95R4ggG7aMjSEveYTzgjHMBxnsYmPQ20KIIBuzi42lRIoKsj48bCwGChvD3npKBJlRbAx7ySvqBNl6JgX41twnRJDV7F00tBnJlwgjgswiNpYZc8YQbYnTKG5v8Nt8ixBBZg8bg19y7zpM9/N8AcD2ntXoFp5GQ68K48VLSN1Ae6foUwGWCLIVqCPOQBM21ppgqS8M2DLAbtDyA5oDAZNqJAkbG0iwsNNgwN4xWGGOCLJR3PmG4QgbC6RoWHFg7yg6QAaaw0CSbKAIG+tOsDBLJNg7josMyw9uJBK4gSFsLGzR8CjYZTvO/zuSFp++YY8FPeBABIqOBAs9HmwZap/+8oOrPOccIwLhYoKFgy34sh7n/x1NMogx8BwGojr1BQctPAombBluF8hAcxiYWrXDxvqIFEzYMuDtEV3DEP6go+gqgkkaLriwd0xtqhFkO5M0Bx2m2QehK8HCNJFhy6AXaxquJ/B1WTNsLLKdR8GGveNK+zERZDQHASrVqBg21saj4MPekfWCDDQHAeuKXtjYYiIFIfaOLaQVQbZC6TtZr6Xwp2n4zIi9o+sELT+gOQho7VphY71ECkrsHV9MJ4JsKKFVdTphYyGLhktO/C8D0IoZZtEcBLxWnUZDnUQKUuwd4wDGwHMIyC5rhI3FEjwKNO8dpTWCzPQgIKoYXBw21sPz3nEaJsiuJjTrinvDxg42Ab13pGYJsuXK38l614aNfYL03rEaI8hoDgFhOzxsjEkB6FwySpANJbTrkkvDxi5BvXe8xggymkNAmW7Eho0xKSCdWyYJsusJ/brixrAxfYL13jEbI8hoDgGpVe/CsLEuP/aOugtnuMrxqKP7wsYONoC9d9y2CLL5PIeA9vK/Cw7cFTZ2CO29IzdGkE1lWQGcbAApungUdQF2ztoiyIJDCZZqjwmCaIKGK47sHb2VhpSVoKk0pJJMCmjnUuMKkwLbpGlcECnQnafcYX8D3kg3czgSfLO+HxNMCoDnJGu4FoRT3c4YJgniyF3WKECeft4pIC6R54piHebI92xR4JzmbpawXQM6cp4pCqSTZnmigHoeM4RnAXt6OajAdyHZ/FDAPUeZwbHgndp2bigAn5us4EYgn1G+KPh+/WDxIqDPz5xTYLyQbD4oYJ9lvilAXkg2DxRV4CMPOaLg+/WDsWCfrYP4FW/gRz6FT0fQT30nesUa/JHr4DkR/JMm0SsIkJdF5NwKBdIJnJFwgPZe5AoS5DRsfgoLqM6DZq9NA+Q+aE6FCOnnkgLaD5KNWUGFfA2YoXCBxk68incyIKscUsD7QbLxKuiQp3AVhEg3dxRkfpDsnVAiJ3mjAPmDZCNVkCJ3gSpokUGQ7P5FCmZPIj8TYuR7iMyrzKC5mykKLj9IdiDcIM0iVJAjj3mgYPYk8t0WP9g8iE5BkBzGpqgwhPp2+c4O/xhY90L//O8/9p/9Z//Zf/af/Wf/2X/2n/1n/9l/9p/9Z//5MgI=;rotation=90;" parent="1" vertex="1">
          <mxGeometry x="30" y="533" width="164.83" height="82.74" as="geometry" />
        </mxCell>
        <mxCell id="4cqCb_3XGZImLFNXIxyI-70" style="edgeStyle=orthogonalEdgeStyle;rounded=0;orthogonalLoop=1;jettySize=auto;html=1;flowAnimation=1;" parent="1" edge="1">
          <mxGeometry relative="1" as="geometry">
            <mxPoint x="64" y="518" as="sourcePoint" />
            <mxPoint x="96" y="359" as="targetPoint" />
            <Array as="points">
              <mxPoint x="62" y="518" />
              <mxPoint x="62" y="388" />
              <mxPoint x="91" y="388" />
              <mxPoint x="96" y="389" />
            </Array>
          </mxGeometry>
        </mxCell>
        <mxCell id="4cqCb_3XGZImLFNXIxyI-71" value="Keycloak" style="text;html=1;align=center;verticalAlign=middle;resizable=0;points=[];autosize=1;strokeColor=none;fillColor=none;" parent="1" vertex="1">
          <mxGeometry x="72" y="658" width="67" height="26" as="geometry" />
        </mxCell>
        <mxCell id="4cqCb_3XGZImLFNXIxyI-72" value="Discovery server" style="text;html=1;align=center;verticalAlign=middle;whiteSpace=wrap;rounded=0;" parent="1" vertex="1">
          <mxGeometry x="495" y="757" width="112" height="30" as="geometry" />
        </mxCell>
        <mxCell id="4cqCb_3XGZImLFNXIxyI-73" value="Config server" style="text;html=1;align=center;verticalAlign=middle;whiteSpace=wrap;rounded=0;" parent="1" vertex="1">
          <mxGeometry x="1180" y="720" width="90" height="30" as="geometry" />
        </mxCell>
        <mxCell id="4cqCb_3XGZImLFNXIxyI-74" value="logs server" style="text;html=1;align=center;verticalAlign=middle;whiteSpace=wrap;rounded=0;" parent="1" vertex="1">
          <mxGeometry x="1447" y="470" width="117" height="30" as="geometry" />
        </mxCell>
        <mxCell id="RhejYsvXMCQbRo2wS7mk-9" value="User&lt;div&gt;&lt;br&gt;&lt;/div&gt;" style="shape=umlActor;verticalLabelPosition=bottom;verticalAlign=top;html=1;outlineConnect=0;" parent="1" vertex="1">
          <mxGeometry x="10" y="315" width="30" height="60" as="geometry" />
        </mxCell>
        <mxCell id="Kt4CexFySijoC3gFd0AW-2" value="" style="shape=image;verticalLabelPosition=bottom;labelBackgroundColor=default;verticalAlign=top;aspect=fixed;imageAspect=0;image=https://www.opc-router.de/wp-content/uploads/2021/03/mongodb_thumbnail.png;" parent="1" vertex="1">
          <mxGeometry x="730.1799999999998" y="128" width="55.76" height="75" as="geometry" />
        </mxCell>
        <mxCell id="Kt4CexFySijoC3gFd0AW-3" value="" style="shape=image;verticalLabelPosition=bottom;labelBackgroundColor=default;verticalAlign=top;aspect=fixed;imageAspect=0;image=https://www.opc-router.de/wp-content/uploads/2021/03/mongodb_thumbnail.png;" parent="1" vertex="1">
          <mxGeometry x="1293" y="447" width="55.76" height="75" as="geometry" />
        </mxCell>
        <mxCell id="Kt4CexFySijoC3gFd0AW-4" value="" style="group" parent="1" vertex="1" connectable="0">
          <mxGeometry x="517.94" y="226" width="50.120000000000005" height="57.64852490606316" as="geometry" />
        </mxCell>
        <mxCell id="Kt4CexFySijoC3gFd0AW-5" value="" style="shape=image;verticalLabelPosition=bottom;labelBackgroundColor=default;verticalAlign=top;aspect=fixed;imageAspect=0;image=https://upload.wikimedia.org/wikipedia/commons/thumb/b/ba/Database-postgres.svg/1448px-Database-postgres.svg.png;container=0;" parent="Kt4CexFySijoC3gFd0AW-4" vertex="1">
          <mxGeometry x="15.99735211811253" width="36.12264788188748" height="51.04120428447361" as="geometry" />
        </mxCell>
        <mxCell id="Kt4CexFySijoC3gFd0AW-6" value="" style="sketch=0;aspect=fixed;html=1;points=[];align=center;image;fontSize=12;image=img/lib/mscae/Docker.svg;fillColor=none;container=0;" parent="Kt4CexFySijoC3gFd0AW-4" vertex="1">
          <mxGeometry y="36.67969348659003" width="25.571745633503813" height="20.968831419473126" as="geometry" />
        </mxCell>
        <mxCell id="Kt4CexFySijoC3gFd0AW-10" value="" style="group" parent="1" vertex="1" connectable="0">
          <mxGeometry x="840" y="159" width="50.120000000000005" height="57.64852490606316" as="geometry" />
        </mxCell>
        <mxCell id="Kt4CexFySijoC3gFd0AW-11" value="" style="shape=image;verticalLabelPosition=bottom;labelBackgroundColor=default;verticalAlign=top;aspect=fixed;imageAspect=0;image=https://upload.wikimedia.org/wikipedia/commons/thumb/b/ba/Database-postgres.svg/1448px-Database-postgres.svg.png;container=0;" parent="Kt4CexFySijoC3gFd0AW-10" vertex="1">
          <mxGeometry x="15.99735211811253" width="36.12264788188748" height="51.04120428447361" as="geometry" />
        </mxCell>
        <mxCell id="Kt4CexFySijoC3gFd0AW-12" value="" style="sketch=0;aspect=fixed;html=1;points=[];align=center;image;fontSize=12;image=img/lib/mscae/Docker.svg;fillColor=none;container=0;" parent="Kt4CexFySijoC3gFd0AW-10" vertex="1">
          <mxGeometry y="36.67969348659003" width="25.571745633503813" height="20.968831419473126" as="geometry" />
        </mxCell>
        <mxCell id="Kt4CexFySijoC3gFd0AW-13" value="" style="group" parent="1" vertex="1" connectable="0">
          <mxGeometry x="458.00000000000006" y="571" width="50.120000000000005" height="57.64852490606316" as="geometry" />
        </mxCell>
        <mxCell id="Kt4CexFySijoC3gFd0AW-14" value="" style="shape=image;verticalLabelPosition=bottom;labelBackgroundColor=default;verticalAlign=top;aspect=fixed;imageAspect=0;image=https://upload.wikimedia.org/wikipedia/commons/thumb/b/ba/Database-postgres.svg/1448px-Database-postgres.svg.png;container=0;" parent="Kt4CexFySijoC3gFd0AW-13" vertex="1">
          <mxGeometry x="15.99735211811253" width="36.12264788188748" height="51.04120428447361" as="geometry" />
        </mxCell>
        <mxCell id="Kt4CexFySijoC3gFd0AW-15" value="" style="sketch=0;aspect=fixed;html=1;points=[];align=center;image;fontSize=12;image=img/lib/mscae/Docker.svg;fillColor=none;container=0;" parent="Kt4CexFySijoC3gFd0AW-13" vertex="1">
          <mxGeometry y="36.67969348659003" width="25.571745633503813" height="20.968831419473126" as="geometry" />
        </mxCell>
        <mxCell id="n49cwzSgjhjXRsMLRAJF-1" value="Auth-authorization" style="text;html=1;align=center;verticalAlign=middle;resizable=0;points=[];autosize=1;strokeColor=none;fillColor=none;" parent="1" vertex="1">
          <mxGeometry x="56" y="677" width="115" height="26" as="geometry" />
        </mxCell>
      </root>
    </mxGraphModel>
  </diagram>
  <diagram id="FYrnJrQARu1fBFtOPtaL" name="class-diagram">
    <mxGraphModel dx="1506" dy="1301" grid="0" gridSize="10" guides="0" tooltips="1" connect="0" arrows="0" fold="1" page="0" pageScale="1" pageWidth="1169" pageHeight="827" math="0" shadow="0">
      <root>
        <mxCell id="0" />
        <mxCell id="1" parent="0" />
        <mxCell id="nPPL16FtD3WXAmP0PZX--12" style="edgeStyle=orthogonalEdgeStyle;rounded=0;orthogonalLoop=1;jettySize=auto;html=1;entryX=0.5;entryY=0;entryDx=0;entryDy=0;endArrow=ERmany;endFill=0;startArrow=ERmandOne;startFill=0;" parent="1" source="WRttjeE3I7V11c35sN3d-1" target="WRttjeE3I7V11c35sN3d-10" edge="1">
          <mxGeometry relative="1" as="geometry" />
        </mxCell>
        <mxCell id="WRttjeE3I7V11c35sN3d-1" value="Customer" style="swimlane;fontStyle=0;childLayout=stackLayout;horizontal=1;startSize=26;fillColor=#d5e8d4;horizontalStack=0;resizeParent=1;resizeParentMax=0;resizeLast=0;collapsible=1;marginBottom=0;whiteSpace=wrap;html=1;strokeColor=#82b366;" parent="1" vertex="1">
          <mxGeometry x="70" y="-80" width="140" height="130" as="geometry" />
        </mxCell>
        <mxCell id="WRttjeE3I7V11c35sN3d-2" value="id" style="text;strokeColor=none;fillColor=none;align=left;verticalAlign=top;spacingLeft=4;spacingRight=4;overflow=hidden;rotatable=0;points=[[0,0.5],[1,0.5]];portConstraint=eastwest;whiteSpace=wrap;html=1;" parent="WRttjeE3I7V11c35sN3d-1" vertex="1">
          <mxGeometry y="26" width="140" height="26" as="geometry" />
        </mxCell>
        <mxCell id="WRttjeE3I7V11c35sN3d-3" value="firstname" style="text;strokeColor=none;fillColor=none;align=left;verticalAlign=top;spacingLeft=4;spacingRight=4;overflow=hidden;rotatable=0;points=[[0,0.5],[1,0.5]];portConstraint=eastwest;whiteSpace=wrap;html=1;" parent="WRttjeE3I7V11c35sN3d-1" vertex="1">
          <mxGeometry y="52" width="140" height="26" as="geometry" />
        </mxCell>
        <mxCell id="WRttjeE3I7V11c35sN3d-4" value="lastname" style="text;strokeColor=none;fillColor=none;align=left;verticalAlign=top;spacingLeft=4;spacingRight=4;overflow=hidden;rotatable=0;points=[[0,0.5],[1,0.5]];portConstraint=eastwest;whiteSpace=wrap;html=1;" parent="WRttjeE3I7V11c35sN3d-1" vertex="1">
          <mxGeometry y="78" width="140" height="26" as="geometry" />
        </mxCell>
        <mxCell id="WRttjeE3I7V11c35sN3d-5" value="email" style="text;strokeColor=none;fillColor=none;align=left;verticalAlign=top;spacingLeft=4;spacingRight=4;overflow=hidden;rotatable=0;points=[[0,0.5],[1,0.5]];portConstraint=eastwest;whiteSpace=wrap;html=1;" parent="WRttjeE3I7V11c35sN3d-1" vertex="1">
          <mxGeometry y="104" width="140" height="26" as="geometry" />
        </mxCell>
        <mxCell id="nPPL16FtD3WXAmP0PZX--13" style="edgeStyle=orthogonalEdgeStyle;rounded=0;orthogonalLoop=1;jettySize=auto;html=1;entryX=0;entryY=0.5;entryDx=0;entryDy=0;endArrow=ERmany;endFill=0;startArrow=ERmandOne;startFill=0;" parent="1" source="WRttjeE3I7V11c35sN3d-10" target="nPPL16FtD3WXAmP0PZX--2" edge="1">
          <mxGeometry relative="1" as="geometry" />
        </mxCell>
        <mxCell id="WRttjeE3I7V11c35sN3d-10" value="Order" style="swimlane;fontStyle=0;childLayout=stackLayout;horizontal=1;startSize=26;fillColor=#dae8fc;horizontalStack=0;resizeParent=1;resizeParentMax=0;resizeLast=0;collapsible=1;marginBottom=0;whiteSpace=wrap;html=1;strokeColor=#6c8ebf;" parent="1" vertex="1">
          <mxGeometry x="70" y="200" width="140" height="104" as="geometry" />
        </mxCell>
        <mxCell id="WRttjeE3I7V11c35sN3d-11" value="id" style="text;strokeColor=none;fillColor=none;align=left;verticalAlign=top;spacingLeft=4;spacingRight=4;overflow=hidden;rotatable=0;points=[[0,0.5],[1,0.5]];portConstraint=eastwest;whiteSpace=wrap;html=1;" parent="WRttjeE3I7V11c35sN3d-10" vertex="1">
          <mxGeometry y="26" width="140" height="26" as="geometry" />
        </mxCell>
        <mxCell id="WRttjeE3I7V11c35sN3d-12" value="orderDate" style="text;strokeColor=none;fillColor=none;align=left;verticalAlign=top;spacingLeft=4;spacingRight=4;overflow=hidden;rotatable=0;points=[[0,0.5],[1,0.5]];portConstraint=eastwest;whiteSpace=wrap;html=1;" parent="WRttjeE3I7V11c35sN3d-10" vertex="1">
          <mxGeometry y="52" width="140" height="26" as="geometry" />
        </mxCell>
        <mxCell id="WRttjeE3I7V11c35sN3d-13" value="reference" style="text;strokeColor=none;fillColor=none;align=left;verticalAlign=top;spacingLeft=4;spacingRight=4;overflow=hidden;rotatable=0;points=[[0,0.5],[1,0.5]];portConstraint=eastwest;whiteSpace=wrap;html=1;" parent="WRttjeE3I7V11c35sN3d-10" vertex="1">
          <mxGeometry y="78" width="140" height="26" as="geometry" />
        </mxCell>
        <mxCell id="WRttjeE3I7V11c35sN3d-14" value="Event" style="swimlane;fontStyle=0;childLayout=stackLayout;horizontal=1;startSize=26;fillColor=#fff2cc;horizontalStack=0;resizeParent=1;resizeParentMax=0;resizeLast=0;collapsible=1;marginBottom=0;whiteSpace=wrap;html=1;strokeColor=#d6b656;" parent="1" vertex="1">
          <mxGeometry x="453" y="174" width="140" height="156" as="geometry" />
        </mxCell>
        <mxCell id="WRttjeE3I7V11c35sN3d-15" value="id" style="text;strokeColor=none;fillColor=none;align=left;verticalAlign=top;spacingLeft=4;spacingRight=4;overflow=hidden;rotatable=0;points=[[0,0.5],[1,0.5]];portConstraint=eastwest;whiteSpace=wrap;html=1;" parent="WRttjeE3I7V11c35sN3d-14" vertex="1">
          <mxGeometry y="26" width="140" height="26" as="geometry" />
        </mxCell>
        <mxCell id="WRttjeE3I7V11c35sN3d-16" value="name" style="text;strokeColor=none;fillColor=none;align=left;verticalAlign=top;spacingLeft=4;spacingRight=4;overflow=hidden;rotatable=0;points=[[0,0.5],[1,0.5]];portConstraint=eastwest;whiteSpace=wrap;html=1;" parent="WRttjeE3I7V11c35sN3d-14" vertex="1">
          <mxGeometry y="52" width="140" height="26" as="geometry" />
        </mxCell>
        <mxCell id="WRttjeE3I7V11c35sN3d-17" value="description" style="text;strokeColor=none;fillColor=none;align=left;verticalAlign=top;spacingLeft=4;spacingRight=4;overflow=hidden;rotatable=0;points=[[0,0.5],[1,0.5]];portConstraint=eastwest;whiteSpace=wrap;html=1;" parent="WRttjeE3I7V11c35sN3d-14" vertex="1">
          <mxGeometry y="78" width="140" height="26" as="geometry" />
        </mxCell>
        <mxCell id="WRttjeE3I7V11c35sN3d-18" value="availableQuantity" style="text;strokeColor=none;fillColor=none;align=left;verticalAlign=top;spacingLeft=4;spacingRight=4;overflow=hidden;rotatable=0;points=[[0,0.5],[1,0.5]];portConstraint=eastwest;whiteSpace=wrap;html=1;" parent="WRttjeE3I7V11c35sN3d-14" vertex="1">
          <mxGeometry y="104" width="140" height="26" as="geometry" />
        </mxCell>
        <mxCell id="WRttjeE3I7V11c35sN3d-24" value="price" style="text;strokeColor=none;fillColor=none;align=left;verticalAlign=top;spacingLeft=4;spacingRight=4;overflow=hidden;rotatable=0;points=[[0,0.5],[1,0.5]];portConstraint=eastwest;whiteSpace=wrap;html=1;" parent="WRttjeE3I7V11c35sN3d-14" vertex="1">
          <mxGeometry y="130" width="140" height="26" as="geometry" />
        </mxCell>
        <mxCell id="nPPL16FtD3WXAmP0PZX--27" style="edgeStyle=orthogonalEdgeStyle;rounded=0;orthogonalLoop=1;jettySize=auto;html=1;entryX=0.5;entryY=0;entryDx=0;entryDy=0;startArrow=ERmandOne;startFill=0;endArrow=ERmandOne;endFill=0;" parent="1" source="WRttjeE3I7V11c35sN3d-20" target="nPPL16FtD3WXAmP0PZX--6" edge="1">
          <mxGeometry relative="1" as="geometry" />
        </mxCell>
        <mxCell id="WRttjeE3I7V11c35sN3d-20" value="Payment" style="swimlane;fontStyle=0;childLayout=stackLayout;horizontal=1;startSize=26;fillColor=#ffe6cc;horizontalStack=0;resizeParent=1;resizeParentMax=0;resizeLast=0;collapsible=1;marginBottom=0;whiteSpace=wrap;html=1;strokeColor=#d79b00;" parent="1" vertex="1">
          <mxGeometry x="-180" y="20" width="140" height="130" as="geometry" />
        </mxCell>
        <mxCell id="WRttjeE3I7V11c35sN3d-21" value="id" style="text;strokeColor=none;fillColor=none;align=left;verticalAlign=top;spacingLeft=4;spacingRight=4;overflow=hidden;rotatable=0;points=[[0,0.5],[1,0.5]];portConstraint=eastwest;whiteSpace=wrap;html=1;" parent="WRttjeE3I7V11c35sN3d-20" vertex="1">
          <mxGeometry y="26" width="140" height="26" as="geometry" />
        </mxCell>
        <mxCell id="WRttjeE3I7V11c35sN3d-22" value="reference" style="text;strokeColor=none;fillColor=none;align=left;verticalAlign=top;spacingLeft=4;spacingRight=4;overflow=hidden;rotatable=0;points=[[0,0.5],[1,0.5]];portConstraint=eastwest;whiteSpace=wrap;html=1;" parent="WRttjeE3I7V11c35sN3d-20" vertex="1">
          <mxGeometry y="52" width="140" height="26" as="geometry" />
        </mxCell>
        <mxCell id="WRttjeE3I7V11c35sN3d-23" value="amount" style="text;strokeColor=none;fillColor=none;align=left;verticalAlign=top;spacingLeft=4;spacingRight=4;overflow=hidden;rotatable=0;points=[[0,0.5],[1,0.5]];portConstraint=eastwest;whiteSpace=wrap;html=1;" parent="WRttjeE3I7V11c35sN3d-20" vertex="1">
          <mxGeometry y="78" width="140" height="26" as="geometry" />
        </mxCell>
        <mxCell id="nPPL16FtD3WXAmP0PZX--5" value="status" style="text;strokeColor=none;fillColor=none;align=left;verticalAlign=top;spacingLeft=4;spacingRight=4;overflow=hidden;rotatable=0;points=[[0,0.5],[1,0.5]];portConstraint=eastwest;whiteSpace=wrap;html=1;" parent="WRttjeE3I7V11c35sN3d-20" vertex="1">
          <mxGeometry y="104" width="140" height="26" as="geometry" />
        </mxCell>
        <mxCell id="nPPL16FtD3WXAmP0PZX--1" value="OrderLine" style="swimlane;fontStyle=0;childLayout=stackLayout;horizontal=1;startSize=26;fillColor=#dae8fc;horizontalStack=0;resizeParent=1;resizeParentMax=0;resizeLast=0;collapsible=1;marginBottom=0;whiteSpace=wrap;html=1;strokeColor=#6c8ebf;" parent="1" vertex="1">
          <mxGeometry x="240" y="380" width="140" height="78" as="geometry" />
        </mxCell>
        <mxCell id="nPPL16FtD3WXAmP0PZX--2" value="id" style="text;strokeColor=none;fillColor=none;align=left;verticalAlign=top;spacingLeft=4;spacingRight=4;overflow=hidden;rotatable=0;points=[[0,0.5],[1,0.5]];portConstraint=eastwest;whiteSpace=wrap;html=1;" parent="nPPL16FtD3WXAmP0PZX--1" vertex="1">
          <mxGeometry y="26" width="140" height="26" as="geometry" />
        </mxCell>
        <mxCell id="nPPL16FtD3WXAmP0PZX--3" value="quantity" style="text;strokeColor=none;fillColor=none;align=left;verticalAlign=top;spacingLeft=4;spacingRight=4;overflow=hidden;rotatable=0;points=[[0,0.5],[1,0.5]];portConstraint=eastwest;whiteSpace=wrap;html=1;" parent="nPPL16FtD3WXAmP0PZX--1" vertex="1">
          <mxGeometry y="52" width="140" height="26" as="geometry" />
        </mxCell>
        <mxCell id="nPPL16FtD3WXAmP0PZX--6" value="Notification" style="swimlane;fontStyle=0;childLayout=stackLayout;horizontal=1;startSize=26;fillColor=#e1d5e7;horizontalStack=0;resizeParent=1;resizeParentMax=0;resizeLast=0;collapsible=1;marginBottom=0;whiteSpace=wrap;html=1;strokeColor=#9673a6;" parent="1" vertex="1">
          <mxGeometry x="-180" y="270" width="140" height="156" as="geometry" />
        </mxCell>
        <mxCell id="nPPL16FtD3WXAmP0PZX--7" value="id" style="text;strokeColor=none;fillColor=none;align=left;verticalAlign=top;spacingLeft=4;spacingRight=4;overflow=hidden;rotatable=0;points=[[0,0.5],[1,0.5]];portConstraint=eastwest;whiteSpace=wrap;html=1;" parent="nPPL16FtD3WXAmP0PZX--6" vertex="1">
          <mxGeometry y="26" width="140" height="26" as="geometry" />
        </mxCell>
        <mxCell id="nPPL16FtD3WXAmP0PZX--8" value="sender" style="text;strokeColor=none;fillColor=none;align=left;verticalAlign=top;spacingLeft=4;spacingRight=4;overflow=hidden;rotatable=0;points=[[0,0.5],[1,0.5]];portConstraint=eastwest;whiteSpace=wrap;html=1;" parent="nPPL16FtD3WXAmP0PZX--6" vertex="1">
          <mxGeometry y="52" width="140" height="26" as="geometry" />
        </mxCell>
        <mxCell id="nPPL16FtD3WXAmP0PZX--9" value="recepient" style="text;strokeColor=none;fillColor=none;align=left;verticalAlign=top;spacingLeft=4;spacingRight=4;overflow=hidden;rotatable=0;points=[[0,0.5],[1,0.5]];portConstraint=eastwest;whiteSpace=wrap;html=1;" parent="nPPL16FtD3WXAmP0PZX--6" vertex="1">
          <mxGeometry y="78" width="140" height="26" as="geometry" />
        </mxCell>
        <mxCell id="nPPL16FtD3WXAmP0PZX--10" value="content" style="text;strokeColor=none;fillColor=none;align=left;verticalAlign=top;spacingLeft=4;spacingRight=4;overflow=hidden;rotatable=0;points=[[0,0.5],[1,0.5]];portConstraint=eastwest;whiteSpace=wrap;html=1;" parent="nPPL16FtD3WXAmP0PZX--6" vertex="1">
          <mxGeometry y="104" width="140" height="26" as="geometry" />
        </mxCell>
        <mxCell id="nPPL16FtD3WXAmP0PZX--11" value="date" style="text;strokeColor=none;fillColor=none;align=left;verticalAlign=top;spacingLeft=4;spacingRight=4;overflow=hidden;rotatable=0;points=[[0,0.5],[1,0.5]];portConstraint=eastwest;whiteSpace=wrap;html=1;" parent="nPPL16FtD3WXAmP0PZX--6" vertex="1">
          <mxGeometry y="130" width="140" height="26" as="geometry" />
        </mxCell>
        <mxCell id="nPPL16FtD3WXAmP0PZX--14" style="edgeStyle=orthogonalEdgeStyle;rounded=0;orthogonalLoop=1;jettySize=auto;html=1;entryX=1;entryY=0.5;entryDx=0;entryDy=0;endArrow=ERmany;endFill=0;startArrow=ERmandOne;startFill=0;" parent="1" source="WRttjeE3I7V11c35sN3d-17" target="nPPL16FtD3WXAmP0PZX--2" edge="1">
          <mxGeometry relative="1" as="geometry" />
        </mxCell>
        <mxCell id="nPPL16FtD3WXAmP0PZX--15" style="edgeStyle=orthogonalEdgeStyle;rounded=0;orthogonalLoop=1;jettySize=auto;html=1;startArrow=ERmandOne;startFill=0;endArrow=ERmandOne;endFill=0;" parent="1" source="WRttjeE3I7V11c35sN3d-11" target="WRttjeE3I7V11c35sN3d-21" edge="1">
          <mxGeometry relative="1" as="geometry" />
        </mxCell>
        <mxCell id="nPPL16FtD3WXAmP0PZX--20" style="edgeStyle=orthogonalEdgeStyle;rounded=0;orthogonalLoop=1;jettySize=auto;html=1;entryX=1;entryY=0.5;entryDx=0;entryDy=0;endArrow=ERmany;endFill=0;startArrow=ERmandOne;startFill=0;" parent="1" source="nPPL16FtD3WXAmP0PZX--16" target="WRttjeE3I7V11c35sN3d-15" edge="1">
          <mxGeometry relative="1" as="geometry" />
        </mxCell>
        <mxCell id="nPPL16FtD3WXAmP0PZX--16" value="Category" style="swimlane;fontStyle=0;childLayout=stackLayout;horizontal=1;startSize=26;fillColor=#fff2cc;horizontalStack=0;resizeParent=1;resizeParentMax=0;resizeLast=0;collapsible=1;marginBottom=0;whiteSpace=wrap;html=1;strokeColor=#d6b656;" parent="1" vertex="1">
          <mxGeometry x="608" y="27" width="140" height="104" as="geometry" />
        </mxCell>
        <mxCell id="nPPL16FtD3WXAmP0PZX--17" value="id" style="text;strokeColor=none;fillColor=none;align=left;verticalAlign=top;spacingLeft=4;spacingRight=4;overflow=hidden;rotatable=0;points=[[0,0.5],[1,0.5]];portConstraint=eastwest;whiteSpace=wrap;html=1;" parent="nPPL16FtD3WXAmP0PZX--16" vertex="1">
          <mxGeometry y="26" width="140" height="26" as="geometry" />
        </mxCell>
        <mxCell id="nPPL16FtD3WXAmP0PZX--18" value="name" style="text;strokeColor=none;fillColor=none;align=left;verticalAlign=top;spacingLeft=4;spacingRight=4;overflow=hidden;rotatable=0;points=[[0,0.5],[1,0.5]];portConstraint=eastwest;whiteSpace=wrap;html=1;" parent="nPPL16FtD3WXAmP0PZX--16" vertex="1">
          <mxGeometry y="52" width="140" height="26" as="geometry" />
        </mxCell>
        <mxCell id="nPPL16FtD3WXAmP0PZX--19" value="description" style="text;strokeColor=none;fillColor=none;align=left;verticalAlign=top;spacingLeft=4;spacingRight=4;overflow=hidden;rotatable=0;points=[[0,0.5],[1,0.5]];portConstraint=eastwest;whiteSpace=wrap;html=1;" parent="nPPL16FtD3WXAmP0PZX--16" vertex="1">
          <mxGeometry y="78" width="140" height="26" as="geometry" />
        </mxCell>
        <mxCell id="nPPL16FtD3WXAmP0PZX--21" value="Address" style="swimlane;fontStyle=0;childLayout=stackLayout;horizontal=1;startSize=26;fillColor=#d5e8d4;horizontalStack=0;resizeParent=1;resizeParentMax=0;resizeLast=0;collapsible=1;marginBottom=0;whiteSpace=wrap;html=1;strokeColor=#82b366;" parent="1" vertex="1">
          <mxGeometry x="370" y="-80" width="140" height="130" as="geometry" />
        </mxCell>
        <mxCell id="nPPL16FtD3WXAmP0PZX--22" value="id" style="text;strokeColor=none;fillColor=none;align=left;verticalAlign=top;spacingLeft=4;spacingRight=4;overflow=hidden;rotatable=0;points=[[0,0.5],[1,0.5]];portConstraint=eastwest;whiteSpace=wrap;html=1;" parent="nPPL16FtD3WXAmP0PZX--21" vertex="1">
          <mxGeometry y="26" width="140" height="26" as="geometry" />
        </mxCell>
        <mxCell id="nPPL16FtD3WXAmP0PZX--23" value="street" style="text;strokeColor=none;fillColor=none;align=left;verticalAlign=top;spacingLeft=4;spacingRight=4;overflow=hidden;rotatable=0;points=[[0,0.5],[1,0.5]];portConstraint=eastwest;whiteSpace=wrap;html=1;" parent="nPPL16FtD3WXAmP0PZX--21" vertex="1">
          <mxGeometry y="52" width="140" height="26" as="geometry" />
        </mxCell>
        <mxCell id="nPPL16FtD3WXAmP0PZX--24" value="houseNumber" style="text;strokeColor=none;fillColor=none;align=left;verticalAlign=top;spacingLeft=4;spacingRight=4;overflow=hidden;rotatable=0;points=[[0,0.5],[1,0.5]];portConstraint=eastwest;whiteSpace=wrap;html=1;" parent="nPPL16FtD3WXAmP0PZX--21" vertex="1">
          <mxGeometry y="78" width="140" height="26" as="geometry" />
        </mxCell>
        <mxCell id="nPPL16FtD3WXAmP0PZX--25" value="zipCode" style="text;strokeColor=none;fillColor=none;align=left;verticalAlign=top;spacingLeft=4;spacingRight=4;overflow=hidden;rotatable=0;points=[[0,0.5],[1,0.5]];portConstraint=eastwest;whiteSpace=wrap;html=1;" parent="nPPL16FtD3WXAmP0PZX--21" vertex="1">
          <mxGeometry y="104" width="140" height="26" as="geometry" />
        </mxCell>
        <mxCell id="nPPL16FtD3WXAmP0PZX--26" style="edgeStyle=orthogonalEdgeStyle;rounded=0;orthogonalLoop=1;jettySize=auto;html=1;entryX=1;entryY=0.5;entryDx=0;entryDy=0;endArrow=ERmandOne;endFill=0;startArrow=ERmandOne;startFill=0;" parent="1" source="nPPL16FtD3WXAmP0PZX--22" target="WRttjeE3I7V11c35sN3d-2" edge="1">
          <mxGeometry relative="1" as="geometry" />
        </mxCell>
        <mxCell id="nPPL16FtD3WXAmP0PZX--28" style="edgeStyle=orthogonalEdgeStyle;rounded=0;orthogonalLoop=1;jettySize=auto;html=1;entryX=1;entryY=0.5;entryDx=0;entryDy=0;exitX=0;exitY=0.5;exitDx=0;exitDy=0;endArrow=ERmandOne;endFill=0;startArrow=ERmandOne;startFill=0;" parent="1" source="WRttjeE3I7V11c35sN3d-12" target="nPPL16FtD3WXAmP0PZX--7" edge="1">
          <mxGeometry relative="1" as="geometry" />
        </mxCell>
      </root>
    </mxGraphModel>
  </diagram>
  <diagram name="domain-class-diagram" id="mql5I4AHV_EOIbO-FXmZ">
    <mxGraphModel dx="1506" dy="1301" grid="0" gridSize="10" guides="0" tooltips="1" connect="0" arrows="0" fold="1" page="0" pageScale="1" pageWidth="1169" pageHeight="827" math="0" shadow="0">
      <root>
        <mxCell id="QaSKw-nrApPyZHBpUXGP-0" />
        <mxCell id="QaSKw-nrApPyZHBpUXGP-1" parent="QaSKw-nrApPyZHBpUXGP-0" />
        <mxCell id="tCyhS_AfBA6SBSUrJkXq-4" value="&lt;b&gt;Notification Domain&lt;/b&gt;" style="rounded=0;whiteSpace=wrap;html=1;fillColor=none;strokeColor=#9673a6;strokeWidth=3;verticalAlign=top;" parent="QaSKw-nrApPyZHBpUXGP-1" vertex="1">
          <mxGeometry x="-210" y="236" width="200" height="200" as="geometry" />
        </mxCell>
        <mxCell id="tCyhS_AfBA6SBSUrJkXq-3" value="&lt;b&gt;Payment Domain&lt;/b&gt;" style="rounded=0;whiteSpace=wrap;html=1;fillColor=none;strokeColor=#d79b00;strokeWidth=3;verticalAlign=top;" parent="QaSKw-nrApPyZHBpUXGP-1" vertex="1">
          <mxGeometry x="-210" y="-20" width="200" height="200" as="geometry" />
        </mxCell>
        <mxCell id="tCyhS_AfBA6SBSUrJkXq-2" value="&lt;b&gt;EnventDomain&lt;/b&gt;" style="rounded=0;whiteSpace=wrap;html=1;fillColor=none;strokeColor=#d6b656;strokeWidth=3;verticalAlign=top;" parent="QaSKw-nrApPyZHBpUXGP-1" vertex="1">
          <mxGeometry x="490" y="40" width="360" height="320" as="geometry" />
        </mxCell>
        <mxCell id="tCyhS_AfBA6SBSUrJkXq-1" value="&lt;b&gt;Order Domain&lt;/b&gt;" style="rounded=0;whiteSpace=wrap;html=1;fillColor=none;strokeColor=#6c8ebf;strokeWidth=3;verticalAlign=top;" parent="QaSKw-nrApPyZHBpUXGP-1" vertex="1">
          <mxGeometry x="50" y="150" width="370" height="350" as="geometry" />
        </mxCell>
        <mxCell id="tCyhS_AfBA6SBSUrJkXq-0" value="&lt;b&gt;Customer Domain&lt;/b&gt;" style="rounded=0;whiteSpace=wrap;html=1;fillColor=none;strokeColor=#82b366;strokeWidth=3;verticalAlign=top;" parent="QaSKw-nrApPyZHBpUXGP-1" vertex="1">
          <mxGeometry x="40" y="-170" width="490" height="200" as="geometry" />
        </mxCell>
        <mxCell id="QaSKw-nrApPyZHBpUXGP-2" style="edgeStyle=orthogonalEdgeStyle;rounded=0;orthogonalLoop=1;jettySize=auto;html=1;entryX=0.5;entryY=0;entryDx=0;entryDy=0;endArrow=ERmany;endFill=0;startArrow=ERmandOne;startFill=0;" parent="QaSKw-nrApPyZHBpUXGP-1" source="QaSKw-nrApPyZHBpUXGP-3" target="QaSKw-nrApPyZHBpUXGP-9" edge="1">
          <mxGeometry relative="1" as="geometry" />
        </mxCell>
        <mxCell id="QaSKw-nrApPyZHBpUXGP-3" value="Customer" style="swimlane;fontStyle=0;childLayout=stackLayout;horizontal=1;startSize=26;fillColor=#d5e8d4;horizontalStack=0;resizeParent=1;resizeParentMax=0;resizeLast=0;collapsible=1;marginBottom=0;whiteSpace=wrap;html=1;strokeColor=#82b366;" parent="QaSKw-nrApPyZHBpUXGP-1" vertex="1">
          <mxGeometry x="70" y="-130" width="140" height="130" as="geometry" />
        </mxCell>
        <mxCell id="QaSKw-nrApPyZHBpUXGP-4" value="id" style="text;strokeColor=none;fillColor=none;align=left;verticalAlign=top;spacingLeft=4;spacingRight=4;overflow=hidden;rotatable=0;points=[[0,0.5],[1,0.5]];portConstraint=eastwest;whiteSpace=wrap;html=1;" parent="QaSKw-nrApPyZHBpUXGP-3" vertex="1">
          <mxGeometry y="26" width="140" height="26" as="geometry" />
        </mxCell>
        <mxCell id="QaSKw-nrApPyZHBpUXGP-5" value="firstname" style="text;strokeColor=none;fillColor=none;align=left;verticalAlign=top;spacingLeft=4;spacingRight=4;overflow=hidden;rotatable=0;points=[[0,0.5],[1,0.5]];portConstraint=eastwest;whiteSpace=wrap;html=1;" parent="QaSKw-nrApPyZHBpUXGP-3" vertex="1">
          <mxGeometry y="52" width="140" height="26" as="geometry" />
        </mxCell>
        <mxCell id="QaSKw-nrApPyZHBpUXGP-6" value="lastname" style="text;strokeColor=none;fillColor=none;align=left;verticalAlign=top;spacingLeft=4;spacingRight=4;overflow=hidden;rotatable=0;points=[[0,0.5],[1,0.5]];portConstraint=eastwest;whiteSpace=wrap;html=1;" parent="QaSKw-nrApPyZHBpUXGP-3" vertex="1">
          <mxGeometry y="78" width="140" height="26" as="geometry" />
        </mxCell>
        <mxCell id="QaSKw-nrApPyZHBpUXGP-7" value="email" style="text;strokeColor=none;fillColor=none;align=left;verticalAlign=top;spacingLeft=4;spacingRight=4;overflow=hidden;rotatable=0;points=[[0,0.5],[1,0.5]];portConstraint=eastwest;whiteSpace=wrap;html=1;" parent="QaSKw-nrApPyZHBpUXGP-3" vertex="1">
          <mxGeometry y="104" width="140" height="26" as="geometry" />
        </mxCell>
        <mxCell id="QaSKw-nrApPyZHBpUXGP-8" style="edgeStyle=orthogonalEdgeStyle;rounded=0;orthogonalLoop=1;jettySize=auto;html=1;entryX=0;entryY=0.5;entryDx=0;entryDy=0;endArrow=ERmany;endFill=0;startArrow=ERmandOne;startFill=0;" parent="QaSKw-nrApPyZHBpUXGP-1" source="QaSKw-nrApPyZHBpUXGP-9" target="QaSKw-nrApPyZHBpUXGP-26" edge="1">
          <mxGeometry relative="1" as="geometry" />
        </mxCell>
        <mxCell id="QaSKw-nrApPyZHBpUXGP-9" value="Order" style="swimlane;fontStyle=0;childLayout=stackLayout;horizontal=1;startSize=26;fillColor=#dae8fc;horizontalStack=0;resizeParent=1;resizeParentMax=0;resizeLast=0;collapsible=1;marginBottom=0;whiteSpace=wrap;html=1;strokeColor=#6c8ebf;" parent="QaSKw-nrApPyZHBpUXGP-1" vertex="1">
          <mxGeometry x="70" y="200" width="140" height="104" as="geometry" />
        </mxCell>
        <mxCell id="QaSKw-nrApPyZHBpUXGP-10" value="id" style="text;strokeColor=none;fillColor=none;align=left;verticalAlign=top;spacingLeft=4;spacingRight=4;overflow=hidden;rotatable=0;points=[[0,0.5],[1,0.5]];portConstraint=eastwest;whiteSpace=wrap;html=1;" parent="QaSKw-nrApPyZHBpUXGP-9" vertex="1">
          <mxGeometry y="26" width="140" height="26" as="geometry" />
        </mxCell>
        <mxCell id="QaSKw-nrApPyZHBpUXGP-11" value="orderDate" style="text;strokeColor=none;fillColor=none;align=left;verticalAlign=top;spacingLeft=4;spacingRight=4;overflow=hidden;rotatable=0;points=[[0,0.5],[1,0.5]];portConstraint=eastwest;whiteSpace=wrap;html=1;" parent="QaSKw-nrApPyZHBpUXGP-9" vertex="1">
          <mxGeometry y="52" width="140" height="26" as="geometry" />
        </mxCell>
        <mxCell id="QaSKw-nrApPyZHBpUXGP-12" value="reference" style="text;strokeColor=none;fillColor=none;align=left;verticalAlign=top;spacingLeft=4;spacingRight=4;overflow=hidden;rotatable=0;points=[[0,0.5],[1,0.5]];portConstraint=eastwest;whiteSpace=wrap;html=1;" parent="QaSKw-nrApPyZHBpUXGP-9" vertex="1">
          <mxGeometry y="78" width="140" height="26" as="geometry" />
        </mxCell>
        <mxCell id="QaSKw-nrApPyZHBpUXGP-13" value="Envent" style="swimlane;fontStyle=0;childLayout=stackLayout;horizontal=1;startSize=26;fillColor=#fff2cc;horizontalStack=0;resizeParent=1;resizeParentMax=0;resizeLast=0;collapsible=1;marginBottom=0;whiteSpace=wrap;html=1;strokeColor=#d6b656;" parent="QaSKw-nrApPyZHBpUXGP-1" vertex="1">
          <mxGeometry x="530" y="182" width="140" height="156" as="geometry" />
        </mxCell>
        <mxCell id="QaSKw-nrApPyZHBpUXGP-14" value="id" style="text;strokeColor=none;fillColor=none;align=left;verticalAlign=top;spacingLeft=4;spacingRight=4;overflow=hidden;rotatable=0;points=[[0,0.5],[1,0.5]];portConstraint=eastwest;whiteSpace=wrap;html=1;" parent="QaSKw-nrApPyZHBpUXGP-13" vertex="1">
          <mxGeometry y="26" width="140" height="26" as="geometry" />
        </mxCell>
        <mxCell id="QaSKw-nrApPyZHBpUXGP-15" value="name" style="text;strokeColor=none;fillColor=none;align=left;verticalAlign=top;spacingLeft=4;spacingRight=4;overflow=hidden;rotatable=0;points=[[0,0.5],[1,0.5]];portConstraint=eastwest;whiteSpace=wrap;html=1;" parent="QaSKw-nrApPyZHBpUXGP-13" vertex="1">
          <mxGeometry y="52" width="140" height="26" as="geometry" />
        </mxCell>
        <mxCell id="QaSKw-nrApPyZHBpUXGP-16" value="description" style="text;strokeColor=none;fillColor=none;align=left;verticalAlign=top;spacingLeft=4;spacingRight=4;overflow=hidden;rotatable=0;points=[[0,0.5],[1,0.5]];portConstraint=eastwest;whiteSpace=wrap;html=1;" parent="QaSKw-nrApPyZHBpUXGP-13" vertex="1">
          <mxGeometry y="78" width="140" height="26" as="geometry" />
        </mxCell>
        <mxCell id="QaSKw-nrApPyZHBpUXGP-17" value="availableQuantity" style="text;strokeColor=none;fillColor=none;align=left;verticalAlign=top;spacingLeft=4;spacingRight=4;overflow=hidden;rotatable=0;points=[[0,0.5],[1,0.5]];portConstraint=eastwest;whiteSpace=wrap;html=1;" parent="QaSKw-nrApPyZHBpUXGP-13" vertex="1">
          <mxGeometry y="104" width="140" height="26" as="geometry" />
        </mxCell>
        <mxCell id="QaSKw-nrApPyZHBpUXGP-18" value="price" style="text;strokeColor=none;fillColor=none;align=left;verticalAlign=top;spacingLeft=4;spacingRight=4;overflow=hidden;rotatable=0;points=[[0,0.5],[1,0.5]];portConstraint=eastwest;whiteSpace=wrap;html=1;" parent="QaSKw-nrApPyZHBpUXGP-13" vertex="1">
          <mxGeometry y="130" width="140" height="26" as="geometry" />
        </mxCell>
        <mxCell id="QaSKw-nrApPyZHBpUXGP-19" style="edgeStyle=orthogonalEdgeStyle;rounded=0;orthogonalLoop=1;jettySize=auto;html=1;entryX=0.5;entryY=0;entryDx=0;entryDy=0;startArrow=ERmandOne;startFill=0;endArrow=ERmandOne;endFill=0;" parent="QaSKw-nrApPyZHBpUXGP-1" source="QaSKw-nrApPyZHBpUXGP-20" target="QaSKw-nrApPyZHBpUXGP-28" edge="1">
          <mxGeometry relative="1" as="geometry" />
        </mxCell>
        <mxCell id="QaSKw-nrApPyZHBpUXGP-20" value="Payment" style="swimlane;fontStyle=0;childLayout=stackLayout;horizontal=1;startSize=26;fillColor=#ffe6cc;horizontalStack=0;resizeParent=1;resizeParentMax=0;resizeLast=0;collapsible=1;marginBottom=0;whiteSpace=wrap;html=1;strokeColor=#d79b00;" parent="QaSKw-nrApPyZHBpUXGP-1" vertex="1">
          <mxGeometry x="-180" y="20" width="140" height="130" as="geometry" />
        </mxCell>
        <mxCell id="QaSKw-nrApPyZHBpUXGP-21" value="id" style="text;strokeColor=none;fillColor=none;align=left;verticalAlign=top;spacingLeft=4;spacingRight=4;overflow=hidden;rotatable=0;points=[[0,0.5],[1,0.5]];portConstraint=eastwest;whiteSpace=wrap;html=1;" parent="QaSKw-nrApPyZHBpUXGP-20" vertex="1">
          <mxGeometry y="26" width="140" height="26" as="geometry" />
        </mxCell>
        <mxCell id="QaSKw-nrApPyZHBpUXGP-22" value="reference" style="text;strokeColor=none;fillColor=none;align=left;verticalAlign=top;spacingLeft=4;spacingRight=4;overflow=hidden;rotatable=0;points=[[0,0.5],[1,0.5]];portConstraint=eastwest;whiteSpace=wrap;html=1;" parent="QaSKw-nrApPyZHBpUXGP-20" vertex="1">
          <mxGeometry y="52" width="140" height="26" as="geometry" />
        </mxCell>
        <mxCell id="QaSKw-nrApPyZHBpUXGP-23" value="amount" style="text;strokeColor=none;fillColor=none;align=left;verticalAlign=top;spacingLeft=4;spacingRight=4;overflow=hidden;rotatable=0;points=[[0,0.5],[1,0.5]];portConstraint=eastwest;whiteSpace=wrap;html=1;" parent="QaSKw-nrApPyZHBpUXGP-20" vertex="1">
          <mxGeometry y="78" width="140" height="26" as="geometry" />
        </mxCell>
        <mxCell id="QaSKw-nrApPyZHBpUXGP-24" value="status" style="text;strokeColor=none;fillColor=none;align=left;verticalAlign=top;spacingLeft=4;spacingRight=4;overflow=hidden;rotatable=0;points=[[0,0.5],[1,0.5]];portConstraint=eastwest;whiteSpace=wrap;html=1;" parent="QaSKw-nrApPyZHBpUXGP-20" vertex="1">
          <mxGeometry y="104" width="140" height="26" as="geometry" />
        </mxCell>
        <mxCell id="QaSKw-nrApPyZHBpUXGP-25" value="OrderLine" style="swimlane;fontStyle=0;childLayout=stackLayout;horizontal=1;startSize=26;fillColor=#dae8fc;horizontalStack=0;resizeParent=1;resizeParentMax=0;resizeLast=0;collapsible=1;marginBottom=0;whiteSpace=wrap;html=1;strokeColor=#6c8ebf;" parent="QaSKw-nrApPyZHBpUXGP-1" vertex="1">
          <mxGeometry x="240" y="380" width="140" height="78" as="geometry" />
        </mxCell>
        <mxCell id="QaSKw-nrApPyZHBpUXGP-26" value="id" style="text;strokeColor=none;fillColor=none;align=left;verticalAlign=top;spacingLeft=4;spacingRight=4;overflow=hidden;rotatable=0;points=[[0,0.5],[1,0.5]];portConstraint=eastwest;whiteSpace=wrap;html=1;" parent="QaSKw-nrApPyZHBpUXGP-25" vertex="1">
          <mxGeometry y="26" width="140" height="26" as="geometry" />
        </mxCell>
        <mxCell id="QaSKw-nrApPyZHBpUXGP-27" value="quantity" style="text;strokeColor=none;fillColor=none;align=left;verticalAlign=top;spacingLeft=4;spacingRight=4;overflow=hidden;rotatable=0;points=[[0,0.5],[1,0.5]];portConstraint=eastwest;whiteSpace=wrap;html=1;" parent="QaSKw-nrApPyZHBpUXGP-25" vertex="1">
          <mxGeometry y="52" width="140" height="26" as="geometry" />
        </mxCell>
        <mxCell id="QaSKw-nrApPyZHBpUXGP-28" value="Notification" style="swimlane;fontStyle=0;childLayout=stackLayout;horizontal=1;startSize=26;fillColor=#e1d5e7;horizontalStack=0;resizeParent=1;resizeParentMax=0;resizeLast=0;collapsible=1;marginBottom=0;whiteSpace=wrap;html=1;strokeColor=#9673a6;" parent="QaSKw-nrApPyZHBpUXGP-1" vertex="1">
          <mxGeometry x="-180" y="270" width="140" height="156" as="geometry" />
        </mxCell>
        <mxCell id="QaSKw-nrApPyZHBpUXGP-29" value="id" style="text;strokeColor=none;fillColor=none;align=left;verticalAlign=top;spacingLeft=4;spacingRight=4;overflow=hidden;rotatable=0;points=[[0,0.5],[1,0.5]];portConstraint=eastwest;whiteSpace=wrap;html=1;" parent="QaSKw-nrApPyZHBpUXGP-28" vertex="1">
          <mxGeometry y="26" width="140" height="26" as="geometry" />
        </mxCell>
        <mxCell id="QaSKw-nrApPyZHBpUXGP-30" value="sender" style="text;strokeColor=none;fillColor=none;align=left;verticalAlign=top;spacingLeft=4;spacingRight=4;overflow=hidden;rotatable=0;points=[[0,0.5],[1,0.5]];portConstraint=eastwest;whiteSpace=wrap;html=1;" parent="QaSKw-nrApPyZHBpUXGP-28" vertex="1">
          <mxGeometry y="52" width="140" height="26" as="geometry" />
        </mxCell>
        <mxCell id="QaSKw-nrApPyZHBpUXGP-31" value="recepient" style="text;strokeColor=none;fillColor=none;align=left;verticalAlign=top;spacingLeft=4;spacingRight=4;overflow=hidden;rotatable=0;points=[[0,0.5],[1,0.5]];portConstraint=eastwest;whiteSpace=wrap;html=1;" parent="QaSKw-nrApPyZHBpUXGP-28" vertex="1">
          <mxGeometry y="78" width="140" height="26" as="geometry" />
        </mxCell>
        <mxCell id="QaSKw-nrApPyZHBpUXGP-32" value="content" style="text;strokeColor=none;fillColor=none;align=left;verticalAlign=top;spacingLeft=4;spacingRight=4;overflow=hidden;rotatable=0;points=[[0,0.5],[1,0.5]];portConstraint=eastwest;whiteSpace=wrap;html=1;" parent="QaSKw-nrApPyZHBpUXGP-28" vertex="1">
          <mxGeometry y="104" width="140" height="26" as="geometry" />
        </mxCell>
        <mxCell id="QaSKw-nrApPyZHBpUXGP-33" value="date" style="text;strokeColor=none;fillColor=none;align=left;verticalAlign=top;spacingLeft=4;spacingRight=4;overflow=hidden;rotatable=0;points=[[0,0.5],[1,0.5]];portConstraint=eastwest;whiteSpace=wrap;html=1;" parent="QaSKw-nrApPyZHBpUXGP-28" vertex="1">
          <mxGeometry y="130" width="140" height="26" as="geometry" />
        </mxCell>
        <mxCell id="QaSKw-nrApPyZHBpUXGP-34" style="edgeStyle=orthogonalEdgeStyle;rounded=0;orthogonalLoop=1;jettySize=auto;html=1;entryX=1;entryY=0.5;entryDx=0;entryDy=0;endArrow=ERmany;endFill=0;startArrow=ERmandOne;startFill=0;" parent="QaSKw-nrApPyZHBpUXGP-1" source="QaSKw-nrApPyZHBpUXGP-16" target="QaSKw-nrApPyZHBpUXGP-26" edge="1">
          <mxGeometry relative="1" as="geometry" />
        </mxCell>
        <mxCell id="QaSKw-nrApPyZHBpUXGP-35" style="edgeStyle=orthogonalEdgeStyle;rounded=0;orthogonalLoop=1;jettySize=auto;html=1;startArrow=ERmandOne;startFill=0;endArrow=ERmandOne;endFill=0;" parent="QaSKw-nrApPyZHBpUXGP-1" source="QaSKw-nrApPyZHBpUXGP-10" target="QaSKw-nrApPyZHBpUXGP-21" edge="1">
          <mxGeometry relative="1" as="geometry" />
        </mxCell>
        <mxCell id="QaSKw-nrApPyZHBpUXGP-36" style="edgeStyle=orthogonalEdgeStyle;rounded=0;orthogonalLoop=1;jettySize=auto;html=1;entryX=1;entryY=0.5;entryDx=0;entryDy=0;endArrow=ERmany;endFill=0;startArrow=ERmandOne;startFill=0;" parent="QaSKw-nrApPyZHBpUXGP-1" source="QaSKw-nrApPyZHBpUXGP-37" target="QaSKw-nrApPyZHBpUXGP-14" edge="1">
          <mxGeometry relative="1" as="geometry" />
        </mxCell>
        <mxCell id="QaSKw-nrApPyZHBpUXGP-37" value="Category" style="swimlane;fontStyle=0;childLayout=stackLayout;horizontal=1;startSize=26;fillColor=#fff2cc;horizontalStack=0;resizeParent=1;resizeParentMax=0;resizeLast=0;collapsible=1;marginBottom=0;whiteSpace=wrap;html=1;strokeColor=#d6b656;" parent="QaSKw-nrApPyZHBpUXGP-1" vertex="1">
          <mxGeometry x="690" y="76" width="140" height="104" as="geometry" />
        </mxCell>
        <mxCell id="QaSKw-nrApPyZHBpUXGP-38" value="id" style="text;strokeColor=none;fillColor=none;align=left;verticalAlign=top;spacingLeft=4;spacingRight=4;overflow=hidden;rotatable=0;points=[[0,0.5],[1,0.5]];portConstraint=eastwest;whiteSpace=wrap;html=1;" parent="QaSKw-nrApPyZHBpUXGP-37" vertex="1">
          <mxGeometry y="26" width="140" height="26" as="geometry" />
        </mxCell>
        <mxCell id="QaSKw-nrApPyZHBpUXGP-39" value="name" style="text;strokeColor=none;fillColor=none;align=left;verticalAlign=top;spacingLeft=4;spacingRight=4;overflow=hidden;rotatable=0;points=[[0,0.5],[1,0.5]];portConstraint=eastwest;whiteSpace=wrap;html=1;" parent="QaSKw-nrApPyZHBpUXGP-37" vertex="1">
          <mxGeometry y="52" width="140" height="26" as="geometry" />
        </mxCell>
        <mxCell id="QaSKw-nrApPyZHBpUXGP-40" value="description" style="text;strokeColor=none;fillColor=none;align=left;verticalAlign=top;spacingLeft=4;spacingRight=4;overflow=hidden;rotatable=0;points=[[0,0.5],[1,0.5]];portConstraint=eastwest;whiteSpace=wrap;html=1;" parent="QaSKw-nrApPyZHBpUXGP-37" vertex="1">
          <mxGeometry y="78" width="140" height="26" as="geometry" />
        </mxCell>
        <mxCell id="QaSKw-nrApPyZHBpUXGP-41" value="Address" style="swimlane;fontStyle=0;childLayout=stackLayout;horizontal=1;startSize=26;fillColor=#d5e8d4;horizontalStack=0;resizeParent=1;resizeParentMax=0;resizeLast=0;collapsible=1;marginBottom=0;whiteSpace=wrap;html=1;strokeColor=#82b366;" parent="QaSKw-nrApPyZHBpUXGP-1" vertex="1">
          <mxGeometry x="370" y="-130" width="140" height="130" as="geometry" />
        </mxCell>
        <mxCell id="QaSKw-nrApPyZHBpUXGP-42" value="id" style="text;strokeColor=none;fillColor=none;align=left;verticalAlign=top;spacingLeft=4;spacingRight=4;overflow=hidden;rotatable=0;points=[[0,0.5],[1,0.5]];portConstraint=eastwest;whiteSpace=wrap;html=1;" parent="QaSKw-nrApPyZHBpUXGP-41" vertex="1">
          <mxGeometry y="26" width="140" height="26" as="geometry" />
        </mxCell>
        <mxCell id="QaSKw-nrApPyZHBpUXGP-43" value="street" style="text;strokeColor=none;fillColor=none;align=left;verticalAlign=top;spacingLeft=4;spacingRight=4;overflow=hidden;rotatable=0;points=[[0,0.5],[1,0.5]];portConstraint=eastwest;whiteSpace=wrap;html=1;" parent="QaSKw-nrApPyZHBpUXGP-41" vertex="1">
          <mxGeometry y="52" width="140" height="26" as="geometry" />
        </mxCell>
        <mxCell id="QaSKw-nrApPyZHBpUXGP-44" value="houseNumber" style="text;strokeColor=none;fillColor=none;align=left;verticalAlign=top;spacingLeft=4;spacingRight=4;overflow=hidden;rotatable=0;points=[[0,0.5],[1,0.5]];portConstraint=eastwest;whiteSpace=wrap;html=1;" parent="QaSKw-nrApPyZHBpUXGP-41" vertex="1">
          <mxGeometry y="78" width="140" height="26" as="geometry" />
        </mxCell>
        <mxCell id="QaSKw-nrApPyZHBpUXGP-45" value="zipCode" style="text;strokeColor=none;fillColor=none;align=left;verticalAlign=top;spacingLeft=4;spacingRight=4;overflow=hidden;rotatable=0;points=[[0,0.5],[1,0.5]];portConstraint=eastwest;whiteSpace=wrap;html=1;" parent="QaSKw-nrApPyZHBpUXGP-41" vertex="1">
          <mxGeometry y="104" width="140" height="26" as="geometry" />
        </mxCell>
        <mxCell id="QaSKw-nrApPyZHBpUXGP-46" style="edgeStyle=orthogonalEdgeStyle;rounded=0;orthogonalLoop=1;jettySize=auto;html=1;entryX=1;entryY=0.5;entryDx=0;entryDy=0;endArrow=ERmandOne;endFill=0;startArrow=ERmandOne;startFill=0;" parent="QaSKw-nrApPyZHBpUXGP-1" source="QaSKw-nrApPyZHBpUXGP-42" target="QaSKw-nrApPyZHBpUXGP-4" edge="1">
          <mxGeometry relative="1" as="geometry" />
        </mxCell>
        <mxCell id="QaSKw-nrApPyZHBpUXGP-47" style="edgeStyle=orthogonalEdgeStyle;rounded=0;orthogonalLoop=1;jettySize=auto;html=1;entryX=1;entryY=0.5;entryDx=0;entryDy=0;exitX=0;exitY=0.5;exitDx=0;exitDy=0;endArrow=ERmandOne;endFill=0;startArrow=ERmandOne;startFill=0;" parent="QaSKw-nrApPyZHBpUXGP-1" source="QaSKw-nrApPyZHBpUXGP-11" target="QaSKw-nrApPyZHBpUXGP-29" edge="1">
          <mxGeometry relative="1" as="geometry" />
        </mxCell>
      </root>
    </mxGraphModel>
  </diagram>
  <diagram id="WqBAav9LYGF2_vxLiK12" name="async-communication">
    <mxGraphModel dx="1506" dy="1293" grid="0" gridSize="10" guides="0" tooltips="1" connect="0" arrows="0" fold="1" page="0" pageScale="1" pageWidth="1169" pageHeight="827" math="0" shadow="0">
      <root>
        <mxCell id="0" />
        <mxCell id="1" parent="0" />
        <mxCell id="6x_ADi77GeF3N2mLvvYw-3" value="" style="shape=cylinder3;whiteSpace=wrap;html=1;boundedLbl=1;backgroundOutline=1;size=15;rotation=90;" parent="1" vertex="1">
          <mxGeometry x="122.5" y="-112.5" width="155" height="390" as="geometry" />
        </mxCell>
        <mxCell id="BDEwJi6k6QcXwIYJIIJd-1" style="edgeStyle=orthogonalEdgeStyle;rounded=0;orthogonalLoop=1;jettySize=auto;html=1;entryX=0;entryY=0.5;entryDx=0;entryDy=0;flowAnimation=1;strokeWidth=2;fillColor=#1ba1e2;strokeColor=#006EAF;" parent="1" source="6x_ADi77GeF3N2mLvvYw-1" target="KhQSRNgivRpIOInoGsQY-10" edge="1">
          <mxGeometry relative="1" as="geometry" />
        </mxCell>
        <mxCell id="6x_ADi77GeF3N2mLvvYw-1" value="Order service" style="shape=image;verticalLabelPosition=bottom;labelBackgroundColor=default;verticalAlign=top;aspect=fixed;imageAspect=0;image=https://images.ctfassets.net/gt6dp23g0g38/5DqlQtFKecFlkqQ8YGDT2p/aa945b648f44dd872e9a1b89f7d203ef/springboot.png;" parent="1" vertex="1">
          <mxGeometry x="-250" y="-40" width="77.94" height="70" as="geometry" />
        </mxCell>
        <mxCell id="BDEwJi6k6QcXwIYJIIJd-2" style="edgeStyle=orthogonalEdgeStyle;rounded=0;orthogonalLoop=1;jettySize=auto;html=1;entryX=0;entryY=0.5;entryDx=0;entryDy=0;flowAnimation=1;strokeWidth=2;fillColor=#1ba1e2;strokeColor=#006EAF;" parent="1" source="6x_ADi77GeF3N2mLvvYw-2" target="KhQSRNgivRpIOInoGsQY-2" edge="1">
          <mxGeometry relative="1" as="geometry" />
        </mxCell>
        <mxCell id="6x_ADi77GeF3N2mLvvYw-2" value="Payment service" style="shape=image;verticalLabelPosition=bottom;labelBackgroundColor=default;verticalAlign=top;aspect=fixed;imageAspect=0;image=https://images.ctfassets.net/gt6dp23g0g38/5DqlQtFKecFlkqQ8YGDT2p/aa945b648f44dd872e9a1b89f7d203ef/springboot.png;" parent="1" vertex="1">
          <mxGeometry x="-250" y="110" width="77.94" height="70" as="geometry" />
        </mxCell>
        <mxCell id="BDEwJi6k6QcXwIYJIIJd-3" style="edgeStyle=entityRelationEdgeStyle;rounded=0;orthogonalLoop=1;jettySize=auto;html=1;entryX=1;entryY=0.5;entryDx=0;entryDy=0;flowAnimation=1;strokeWidth=2;fillColor=#60a917;strokeColor=#2D7600;" parent="1" source="6x_ADi77GeF3N2mLvvYw-4" target="KhQSRNgivRpIOInoGsQY-10" edge="1">
          <mxGeometry relative="1" as="geometry" />
        </mxCell>
        <mxCell id="BDEwJi6k6QcXwIYJIIJd-4" style="edgeStyle=entityRelationEdgeStyle;rounded=0;orthogonalLoop=1;jettySize=auto;html=1;entryX=1;entryY=0.5;entryDx=0;entryDy=0;flowAnimation=1;strokeWidth=2;fillColor=#60a917;strokeColor=#2D7600;" parent="1" source="6x_ADi77GeF3N2mLvvYw-4" target="KhQSRNgivRpIOInoGsQY-2" edge="1">
          <mxGeometry relative="1" as="geometry" />
        </mxCell>
        <mxCell id="bptwb3j-g_TwmTFqLHP_-3" style="edgeStyle=orthogonalEdgeStyle;rounded=0;orthogonalLoop=1;jettySize=auto;html=1;shape=link;flowAnimation=1;strokeWidth=2;" parent="1" source="6x_ADi77GeF3N2mLvvYw-4" target="bptwb3j-g_TwmTFqLHP_-1" edge="1">
          <mxGeometry relative="1" as="geometry" />
        </mxCell>
        <mxCell id="bptwb3j-g_TwmTFqLHP_-5" style="edgeStyle=orthogonalEdgeStyle;rounded=0;orthogonalLoop=1;jettySize=auto;html=1;shape=link;" parent="1" source="6x_ADi77GeF3N2mLvvYw-4" target="bptwb3j-g_TwmTFqLHP_-4" edge="1">
          <mxGeometry relative="1" as="geometry" />
        </mxCell>
        <mxCell id="6x_ADi77GeF3N2mLvvYw-4" value="Notification service" style="shape=image;verticalLabelPosition=bottom;labelBackgroundColor=default;verticalAlign=top;aspect=fixed;imageAspect=0;image=https://images.ctfassets.net/gt6dp23g0g38/5DqlQtFKecFlkqQ8YGDT2p/aa945b648f44dd872e9a1b89f7d203ef/springboot.png;" parent="1" vertex="1">
          <mxGeometry x="550" y="47.5" width="77.94" height="70" as="geometry" />
        </mxCell>
        <mxCell id="KhQSRNgivRpIOInoGsQY-1" value="" style="group;fillColor=#dae8fc;strokeColor=#6c8ebf;container=0;" parent="1" vertex="1" connectable="0">
          <mxGeometry x="40" y="90" width="310" height="60" as="geometry" />
        </mxCell>
        <mxCell id="KhQSRNgivRpIOInoGsQY-2" value="payment-topic" style="rounded=0;whiteSpace=wrap;html=1;container=0;fillColor=#ffe6cc;strokeColor=#d79b00;verticalAlign=bottom;" parent="1" vertex="1">
          <mxGeometry x="40" y="90" width="310" height="60" as="geometry" />
        </mxCell>
        <mxCell id="KhQSRNgivRpIOInoGsQY-3" value="" style="shape=message;html=1;html=1;outlineConnect=0;labelPosition=center;verticalLabelPosition=bottom;align=center;verticalAlign=top;container=0;" parent="1" vertex="1">
          <mxGeometry x="50" y="107.5" width="40" height="25" as="geometry" />
        </mxCell>
        <mxCell id="KhQSRNgivRpIOInoGsQY-4" value="" style="shape=message;html=1;html=1;outlineConnect=0;labelPosition=center;verticalLabelPosition=bottom;align=center;verticalAlign=top;container=0;" parent="1" vertex="1">
          <mxGeometry x="100" y="107.5" width="40" height="25" as="geometry" />
        </mxCell>
        <mxCell id="KhQSRNgivRpIOInoGsQY-5" value="" style="shape=message;html=1;html=1;outlineConnect=0;labelPosition=center;verticalLabelPosition=bottom;align=center;verticalAlign=top;container=0;" parent="1" vertex="1">
          <mxGeometry x="150" y="107.5" width="40" height="25" as="geometry" />
        </mxCell>
        <mxCell id="KhQSRNgivRpIOInoGsQY-6" value="" style="shape=message;html=1;html=1;outlineConnect=0;labelPosition=center;verticalLabelPosition=bottom;align=center;verticalAlign=top;container=0;" parent="1" vertex="1">
          <mxGeometry x="200" y="107.5" width="40" height="25" as="geometry" />
        </mxCell>
        <mxCell id="KhQSRNgivRpIOInoGsQY-7" value="" style="shape=message;html=1;html=1;outlineConnect=0;labelPosition=center;verticalLabelPosition=bottom;align=center;verticalAlign=top;container=0;" parent="1" vertex="1">
          <mxGeometry x="250" y="107.5" width="40" height="25" as="geometry" />
        </mxCell>
        <mxCell id="KhQSRNgivRpIOInoGsQY-8" value="" style="shape=message;html=1;html=1;outlineConnect=0;labelPosition=center;verticalLabelPosition=bottom;align=center;verticalAlign=top;container=0;" parent="1" vertex="1">
          <mxGeometry x="300" y="107.5" width="40" height="25" as="geometry" />
        </mxCell>
        <mxCell id="KhQSRNgivRpIOInoGsQY-9" value="" style="group;fillColor=#dae8fc;strokeColor=#6c8ebf;container=0;" parent="1" vertex="1" connectable="0">
          <mxGeometry x="40" y="20" width="310" height="60" as="geometry" />
        </mxCell>
        <mxCell id="KhQSRNgivRpIOInoGsQY-10" value="order-topic" style="rounded=0;whiteSpace=wrap;html=1;container=0;fillColor=#dae8fc;strokeColor=#6c8ebf;verticalAlign=bottom;" parent="1" vertex="1">
          <mxGeometry x="40" y="20" width="310" height="60" as="geometry" />
        </mxCell>
        <mxCell id="KhQSRNgivRpIOInoGsQY-11" value="" style="shape=message;html=1;html=1;outlineConnect=0;labelPosition=center;verticalLabelPosition=bottom;align=center;verticalAlign=top;container=0;" parent="1" vertex="1">
          <mxGeometry x="50" y="37.5" width="40" height="25" as="geometry" />
        </mxCell>
        <mxCell id="KhQSRNgivRpIOInoGsQY-12" value="" style="shape=message;html=1;html=1;outlineConnect=0;labelPosition=center;verticalLabelPosition=bottom;align=center;verticalAlign=top;container=0;" parent="1" vertex="1">
          <mxGeometry x="100" y="37.5" width="40" height="25" as="geometry" />
        </mxCell>
        <mxCell id="KhQSRNgivRpIOInoGsQY-13" value="" style="shape=message;html=1;html=1;outlineConnect=0;labelPosition=center;verticalLabelPosition=bottom;align=center;verticalAlign=top;container=0;" parent="1" vertex="1">
          <mxGeometry x="150" y="37.5" width="40" height="25" as="geometry" />
        </mxCell>
        <mxCell id="KhQSRNgivRpIOInoGsQY-14" value="" style="shape=message;html=1;html=1;outlineConnect=0;labelPosition=center;verticalLabelPosition=bottom;align=center;verticalAlign=top;container=0;" parent="1" vertex="1">
          <mxGeometry x="200" y="37.5" width="40" height="25" as="geometry" />
        </mxCell>
        <mxCell id="KhQSRNgivRpIOInoGsQY-15" value="" style="shape=message;html=1;html=1;outlineConnect=0;labelPosition=center;verticalLabelPosition=bottom;align=center;verticalAlign=top;container=0;" parent="1" vertex="1">
          <mxGeometry x="250" y="37.5" width="40" height="25" as="geometry" />
        </mxCell>
        <mxCell id="KhQSRNgivRpIOInoGsQY-16" value="" style="shape=message;html=1;html=1;outlineConnect=0;labelPosition=center;verticalLabelPosition=bottom;align=center;verticalAlign=top;container=0;" parent="1" vertex="1">
          <mxGeometry x="300" y="37.5" width="40" height="25" as="geometry" />
        </mxCell>
        <mxCell id="BDEwJi6k6QcXwIYJIIJd-5" value="&lt;b&gt;Kafka Broker&lt;/b&gt;" style="text;html=1;align=center;verticalAlign=middle;resizable=0;points=[];autosize=1;strokeColor=none;fillColor=none;" parent="1" vertex="1">
          <mxGeometry x="122.5" y="160" width="100" height="30" as="geometry" />
        </mxCell>
        <mxCell id="bptwb3j-g_TwmTFqLHP_-1" value="" style="shape=image;verticalLabelPosition=bottom;labelBackgroundColor=default;verticalAlign=top;aspect=fixed;imageAspect=0;image=https://www.opc-router.de/wp-content/uploads/2021/03/mongodb_thumbnail.png;" parent="1" vertex="1">
          <mxGeometry x="553.65" y="204" width="70.63" height="95" as="geometry" />
        </mxCell>
        <mxCell id="bptwb3j-g_TwmTFqLHP_-2" value="" style="sketch=0;aspect=fixed;html=1;points=[];align=center;image;fontSize=12;image=img/lib/mscae/Docker.svg;fillColor=none;" parent="1" vertex="1">
          <mxGeometry x="561" y="300" width="50" height="41" as="geometry" />
        </mxCell>
        <mxCell id="bptwb3j-g_TwmTFqLHP_-4" value="" style="verticalLabelPosition=bottom;html=1;verticalAlign=top;strokeWidth=1;align=center;outlineConnect=0;dashed=0;outlineConnect=0;shape=mxgraph.aws3d.email_service;fillColor=#dae8fc;strokeColor=#6c8ebf;aspect=fixed;" parent="1" vertex="1">
          <mxGeometry x="560.65" y="-100" width="56.62" height="72" as="geometry" />
        </mxCell>
        <mxCell id="L266BjCJHfs90WsumDwv-1" value="Mail.io" style="text;html=1;align=center;verticalAlign=middle;resizable=0;points=[];autosize=1;strokeColor=none;fillColor=none;" parent="1" vertex="1">
          <mxGeometry x="620" y="-82" width="53" height="26" as="geometry" />
        </mxCell>
      </root>
    </mxGraphModel>
  </diagram>
</mxfile>
